<?xml version="1.0" encoding="utf-8"?>
<!-- Generator: Adobe Illustrator 17.0.1, SVG Export Plug-In . SVG Version: 6.00 Build 0)  -->
<!DOCTYPE svg PUBLIC "-//W3C//DTD SVG 1.1//EN" "http://www.w3.org/Graphics/SVG/1.1/DTD/svg11.dtd">
<svg version="1.1" id="Слой_1" xmlns="http://www.w3.org/2000/svg" xmlns:xlink="http://www.w3.org/1999/xlink" x="0px" y="0px"
	 width="38.005px" height="39.996px" viewBox="0 0 38.005 39.996" enable-background="new 0 0 38.005 39.996" xml:space="preserve">
<path fill="#0D0F0F" d="M37.022,23.921c-0.445,0.406-1.735,0.537-3.05,0.557c-0.547-4.298-1.907-11.314-5.104-13.796
	c2.799,0.523,7.752,1.71,8.507,3.657C38.437,17.077,38.043,22.99,37.022,23.921z M23.837,9.607c-2.422,0-4.385-1.98-4.385-4.421
	c0-2.442,1.963-4.421,4.385-4.421s4.386,1.979,4.386,4.421C28.223,7.627,26.259,9.607,23.837,9.607z M21.468,11.308
	c0.74,0.678,0.794,1.832,0.122,2.578c-2.968,3.324-6.422,4.452-9.263,4.452c-0.029,0-0.058,0-0.087,0
	c-3.954-0.021-6.701-1.858-6.858-1.945h0.001c-0.838-0.55-1.075-1.681-0.529-2.526c0.545-0.844,1.666-1.083,2.504-0.533l0,0
	c0.008,0.005,0.026,0.016,0.053,0.032c0.052,0.031,0.138,0.082,0.255,0.145c0.234,0.125,0.59,0.301,1.038,0.477
	c0.896,0.353,2.152,0.701,3.536,0.699c2.012-0.023,4.28-0.638,6.671-3.257C19.584,10.684,20.728,10.63,21.468,11.308z M9.903,10.132
	C7.165,9.489,5.462,6.73,6.099,3.969c0.638-2.76,3.374-4.477,6.113-3.834c2.738,0.643,4.441,3.402,3.803,6.162
	C15.377,9.058,12.641,10.775,9.903,10.132z M7.428,10.65c1.303,0.327,2.112,1.67,2.303,3.206c-0.325-0.095-0.618-0.196-0.863-0.293
	C8.43,13.39,8.088,13.22,7.88,13.108c-0.109-0.059-0.19-0.105-0.25-0.141l-0.025-0.016c-0.369-0.241-0.795-0.369-1.233-0.369
	c-0.769,0-1.478,0.387-1.897,1.036c-0.682,1.054-0.385,2.47,0.66,3.158l0.015,0.009l0.011,0.006L5.2,16.815
	c0.641,0.394,2.023,1.137,3.905,1.592c-0.428,2.171-0.86,4.662-0.878,7.066h6.969c1.196,0,2.258,0.753,2.663,1.888
	c0.403,1.135,0.059,2.397-0.864,3.164L6.699,39.081c-0.527,0.437-1.164,0.651-1.797,0.651c-0.816,0-1.626-0.354-2.185-1.038
	c-0.994-1.216-0.822-3.013,0.384-4.015l4.215-3.503H6.762c-0.348,0.055-0.751,0.071-1.212,0.077
	c-2.074,0.027-4.571-0.35-5.279-4.023c-0.585-5.069-0.254-8.065,1.286-12.667C2.696,11.222,5.497,10.165,7.428,10.65z M20.18,21.513
	c1.128-0.369,1.936-0.929,2.571-1.594c0.631-0.665,1.083-1.449,1.401-2.246c0.639-1.591,0.707-3.22,0.703-3.677
	c0-0.049,0-0.085-0.001-0.106c0-0.017,0-0.017,0-0.017c-0.036-0.819,0.594-1.511,1.405-1.546c0.812-0.036,1.499,0.598,1.534,1.416
	c0.001,0.02,0.004,0.108,0.004,0.253c0,0.514-0.041,1.74-0.414,3.227c-0.376,1.481-1.088,3.248-2.507,4.747
	c-0.942,0.996-2.204,1.852-3.791,2.366c-0.151,0.049-0.303,0.072-0.453,0.072c-0.621,0-1.198-0.399-1.4-1.027
	C18.983,22.601,19.407,21.765,20.18,21.513z M25.203,22.285c1.236-1.305,2.116-2.97,2.618-4.95c0.371-1.474,0.428-2.724,0.429-3.34
	c0-0.157-0.004-0.252-0.005-0.271c-0.045-1.04-0.888-1.855-1.92-1.855c-0.028,0-0.057,0-0.085,0.002
	c-0.514,0.022-0.988,0.245-1.335,0.627s-0.526,0.877-0.503,1.402l0.001,0.1c0.001,0.184-0.005,1.845-0.671,3.503
	c-0.331,0.828-0.771,1.535-1.307,2.1c-0.36,0.376-0.761,0.691-1.207,0.951c0.455-5.226,1.818-10.322,5.129-10.322
	c5.186,0,7.125,11.689,7.5,17.61c0.033,0.519-2.683,0.973-5.614,1.2c-0.134,0.909-0.22,1.921-0.219,3.02
	c0,1.685,0.201,3.579,0.743,5.64c0.257,0.974-0.319,1.974-1.285,2.232c-0.156,0.042-0.312,0.062-0.466,0.062
	c-0.801,0-1.533-0.54-1.749-1.357c-0.627-2.382-0.865-4.599-0.864-6.577c0.001-1.023,0.065-1.98,0.169-2.867
	c-1.936,0.001-3.41-0.155-3.434-0.534c-0.069-1.096-0.112-2.417-0.102-3.843c0.066-0.014,0.132-0.027,0.197-0.048
	C22.782,24.265,24.121,23.429,25.203,22.285z"/>
</svg>
