<?xml version="1.0" encoding="utf-8"?>
<!-- Generator: Adobe Illustrator 17.0.1, SVG Export Plug-In . SVG Version: 6.00 Build 0)  -->
<!DOCTYPE svg PUBLIC "-//W3C//DTD SVG 1.1//EN" "http://www.w3.org/Graphics/SVG/1.1/DTD/svg11.dtd">
<svg version="1.1" id="Слой_1" xmlns="http://www.w3.org/2000/svg" xmlns:xlink="http://www.w3.org/1999/xlink" x="0px" y="0px"
	 width="32px" height="22px" viewBox="0 0 32 22" enable-background="new 0 0 32 22" xml:space="preserve">
<path fill="#0D0F0F" d="M29,22H3c-1.654,0-3-1.346-3-3V3c0-1.654,1.346-3,3-3h26c1.654,0,3,1.346,3,3v16C32,20.654,30.654,22,29,22z
	 M30,3c0-0.55-0.45-1-1-1H3C2.45,2,2,2.45,2,3v16c0,0.55,0.45,1,1,1h26c0.55,0,1-0.45,1-1V3z M26,16h-8.5c-0.552,0-1-0.448-1-1
	s0.448-1,1-1H26c0.552,0,1,0.448,1,1S26.552,16,26,16z M26,12h-8.5c-0.552,0-1-0.448-1-1s0.448-1,1-1H26c0.552,0,1,0.448,1,1
	S26.552,12,26,12z M26,8h-8.5c-0.552,0-1-0.448-1-1s0.448-1,1-1H26c0.552,0,1,0.448,1,1S26.552,8,26,8z M12.77,17H4.73
	C4.328,17,4,16.652,4,16.229c0,0,0.003-1.349,0.004-1.492L4.001,14.73c0.001-0.027,0.005-0.112,0.007-0.127
	c0.109-1.311,1.322-2.416,3.004-2.875C7.551,11.582,8.136,11.5,8.75,11.5c0.613,0,1.199,0.082,1.738,0.227
	c1.682,0.459,2.897,1.564,3.006,2.874c0,0.009,0.002,0.042,0.003,0.072c0,0,0.002,0.045,0.002,0.057
	c0,0.009,0.001,1.499,0.001,1.498c0,0.001,0,0.003,0,0.005C13.498,16.655,13.171,17,12.77,17z M8.751,9.889
	c-1.351,0-2.445-1.095-2.445-2.444C6.306,6.095,7.4,5,8.751,5c1.35,0,2.443,1.095,2.443,2.445
	C11.194,8.794,10.101,9.889,8.751,9.889z"/>
</svg>
