<?xml version="1.0" encoding="utf-8"?>
<!-- Generator: Adobe Illustrator 17.0.1, SVG Export Plug-In . SVG Version: 6.00 Build 0)  -->
<!DOCTYPE svg PUBLIC "-//W3C//DTD SVG 1.1//EN" "http://www.w3.org/Graphics/SVG/1.1/DTD/svg11.dtd">
<svg version="1.1" id="Слой_1" xmlns="http://www.w3.org/2000/svg" xmlns:xlink="http://www.w3.org/1999/xlink" x="0px" y="0px"
	 width="39.998px" height="38.016px" viewBox="0 0 39.998 38.016" enable-background="new 0 0 39.998 38.016" xml:space="preserve">
<path fill="#0D0F0F" d="M38.23,38.016h-8.775c-1.244,0-1.706-0.741-1.985-1.408l-1.945-4.652H1.793C0.808,31.956,0,31.136,0,30.134
	v-2.643c0-0.752,0.607-1.308,1.344-1.367l22.914-1.83c1.327-0.105,2.459,0.883,2.805,2.153l3.335,7.977h7.832
	c0.972,0,1.768,0.808,1.768,1.796S39.203,38.016,38.23,38.016z M34.582,32.45c-2.528,0-4.578-2.082-4.578-4.651
	c0-2.568,2.05-4.65,4.578-4.65s4.577,2.082,4.577,4.65C39.159,30.368,37.11,32.45,34.582,32.45z M22.329,23.143L22.329,23.143
	c-0.909,0.35-1.935-0.119-2.279-1.043l-1.986-5.326l-2.407,5.856c-0.173,0.421-0.357,0.839-0.598,1.171l-8.916,0.65
	c-0.881-0.179-0.717-0.953-0.496-1.821l2.497-9.814c0.252-0.99,0.823-1.86,1.831-1.86h7.885c0.816,0,2.086,0.728,2.387,1.534
	l3.109,8.338C23.7,21.751,23.238,22.793,22.329,23.143z M14.58,9.301c-2.529,0-4.578-2.082-4.578-4.65
	C10.002,2.082,12.051,0,14.58,0c2.528,0,4.577,2.082,4.577,4.651C19.157,7.219,17.108,9.301,14.58,9.301z M1.589,33.141h21.38
	c0.874,0,1.589,0.727,1.589,1.615v1.166c0,0.508-0.409,0.923-0.908,0.923H0.908c-0.5,0-0.908-0.417-0.908-0.923v-1.166
	C0,33.869,0.717,33.141,1.589,33.141z"/>
</svg>
