<?xml version="1.0" encoding="utf-8"?>
<!-- Generator: Adobe Illustrator 17.0.1, SVG Export Plug-In . SVG Version: 6.00 Build 0)  -->
<!DOCTYPE svg PUBLIC "-//W3C//DTD SVG 1.1//EN" "http://www.w3.org/Graphics/SVG/1.1/DTD/svg11.dtd">
<svg version="1.1" id="Слой_1" xmlns="http://www.w3.org/2000/svg" xmlns:xlink="http://www.w3.org/1999/xlink" x="0px" y="0px"
	 width="33.004px" height="26.02px" viewBox="0 0 33.004 26.02" enable-background="new 0 0 33.004 26.02" xml:space="preserve">
<path fill="#0D0F0F" d="M31.845,25.899H20.259c-0.639,0-1.158-0.452-1.158-1.008c0-0.557,0.519-1.009,1.158-1.009h11.586
	c0.64,0,1.159,0.452,1.159,1.009C33.004,25.447,32.485,25.899,31.845,25.899z M30.819,23.076h-9.533
	c-0.64,0-1.159-0.452-1.159-1.008c0-0.557,0.519-1.008,1.159-1.008h9.533c0.64,0,1.159,0.451,1.159,1.008
	C31.978,22.624,31.459,23.076,30.819,23.076z M29.793,20.252h-7.481c-0.64,0-1.159-0.451-1.159-1.008
	c0-0.557,0.519-1.008,1.159-1.008h7.481c0.64,0,1.159,0.451,1.159,1.008C30.952,19.801,30.433,20.252,29.793,20.252z M28.767,17.362
	h-5.429c-0.64,0-1.159-0.451-1.159-1.008c0-0.557,0.519-1.008,1.159-1.008h5.429c0.64,0,1.159,0.451,1.159,1.008
	C29.926,16.911,29.407,17.362,28.767,17.362z M16.835,13.286c-0.687,0.226-1.27,0.392-1.768-0.438
	c-0.264,0.312-2.323,2.746-3.188,3.672c-0.578,0.619-1.695,0.85-2.463,0.521c-0.184-0.078-0.463-0.18-0.463-0.18
	C9.038,17.418,9.085,18,9.085,18.6c0,0.349-0.017,0.691-0.047,1.027c0,0,0.447-0.153,1.089-0.372
	c0.753-0.257,1.795-0.138,2.428,0.191c1.027,0.535,3.569,2.35,4.674,3.299c0.76,0.652,1.046,1.675,0.477,2.493
	c-0.568,0.818-1.704,1.028-2.536,0.469l-3.173-2.13c-0.096,0.047-0.194,0.089-0.298,0.125c0,0-2.758,2.357-7.292,2.268
	c-0.505-0.01-1.251-0.126-1.69-0.359C0.91,24.651,0,21.875,0,18.6c0-4.042,2.065-7.369,4.623-7.37c2.181,0,5.665,2.139,5.665,2.139
	l2.354-2.682c0.476-0.543,1.233-0.675,1.87-0.409c0.075-0.893,0.404-1.572,0.729-1.678c0.462-0.152,1.991,0.846,2.557,2.509
	S17.681,13.007,16.835,13.286z M5.841,9.771c-2.745,0-4.972-2.187-4.972-4.887C0.869,2.187,3.096,0,5.841,0
	c2.746,0,4.972,2.187,4.972,4.884C10.813,7.584,8.587,9.771,5.841,9.771z"/>
</svg>
