<?xml version="1.0" encoding="utf-8"?>
<!-- Generator: Adobe Illustrator 17.0.1, SVG Export Plug-In . SVG Version: 6.00 Build 0)  -->
<!DOCTYPE svg PUBLIC "-//W3C//DTD SVG 1.1//EN" "http://www.w3.org/Graphics/SVG/1.1/DTD/svg11.dtd">
<svg version="1.1" id="Слой_1" xmlns="http://www.w3.org/2000/svg" xmlns:xlink="http://www.w3.org/1999/xlink" x="0px" y="0px"
	 width="32px" height="40px" viewBox="0 0 32 40" enable-background="new 0 0 32 40" xml:space="preserve">
<path fill="#0D0F0F" d="M29.021,24.838v11.099c0,2.244-1.812,4.063-4.047,4.063H7.026c-2.235,0-4.047-1.819-4.047-4.063V24.838
	L0,25.116v-3.721l2.979,0.277v-2.204h23.558V19.44h1.807h0.677v2.232L32,21.395v3.721L29.021,24.838z M24.915,21.913h-2.581V35.62
	h2.581V21.913z M26.416,18.308H25.26c-0.222-0.079-0.429-0.202-0.605-0.367l-0.423,0.367H9.583H8.396H7.398
	c0.296-3.422,3.304-6.119,6.982-6.131c0.151,0,0.3,0.005,0.448,0.013c0.871-0.741,1.799-1.069,2.584-1.008l0.508-0.664
	c-0.369-0.473-0.378-1.144-0.015-1.619C18.086,8.663,18.343,8.5,18.63,8.44c0.366-0.077,0.756,0.023,1.048,0.268
	c0.214,0.179,0.366,0.425,0.432,0.697c0.275,0.012,0.536,0.114,0.748,0.292c0.535,0.448,0.627,1.263,0.205,1.815
	c-0.181,0.236-0.439,0.4-0.725,0.459c-0.283,0.06-0.58,0.015-0.835-0.123L19.081,12.4c0.169,0.444,0.185,0.965,0.046,1.513
	c0.66,0.571,1.206,1.259,1.6,2.031c-1.824-0.064-3.262,0.925-4.466,2.19c0.276-0.221,0.565-0.43,0.864-0.624
	c1.749-1.139,3.493-1.42,4.781-0.995l0.96-0.835c-0.42-0.758-0.268-1.747,0.397-2.326c0.317-0.275,0.718-0.428,1.131-0.429
	c0.534-0.002,1.034,0.242,1.374,0.669c0.267,0.337,0.406,0.749,0.403,1.175c0.403,0.079,0.768,0.301,1.033,0.635
	c0.616,0.775,0.514,1.932-0.229,2.577C26.809,18.126,26.618,18.236,26.416,18.308z M18.712,11.796
	c0.006,0.006,0.011,0.013,0.016,0.018l0.677-0.884l0.256,0.25c0.013,0.013,0.024,0.024,0.037,0.035
	c0.143,0.12,0.333,0.169,0.51,0.132c0.14-0.029,0.261-0.106,0.351-0.223c0.218-0.285,0.169-0.706-0.108-0.938
	c-0.152-0.127-0.355-0.174-0.54-0.126l-0.407,0.107l0.009-0.423c0.005-0.214-0.083-0.413-0.242-0.547
	c-0.144-0.121-0.334-0.17-0.512-0.133c-0.139,0.029-0.261,0.106-0.35,0.223c-0.218,0.285-0.169,0.706,0.108,0.938
	c0.006,0.004,0.012,0.009,0.019,0.014l0.249,0.195l-0.699,0.914C18.323,11.451,18.535,11.601,18.712,11.796z M26.631,15.862
	c-0.208-0.262-0.521-0.407-0.847-0.389L25.3,15.499l0.108-0.475c0.079-0.347,0.001-0.701-0.213-0.971
	c-0.199-0.25-0.49-0.393-0.798-0.392c-0.241,0-0.467,0.087-0.654,0.249c-0.449,0.391-0.51,1.092-0.136,1.563l0.004,0.004
	c0.007,0.008,0.015,0.017,0.022,0.025l0.237,0.278l-1.241,1.079c0.358,0.233,0.657,0.539,0.879,0.913
	c0.026,0.043,0.049,0.086,0.072,0.13l1.184-1.03l0.232,0.343c0.015,0.023,0.031,0.046,0.048,0.069
	c0.198,0.249,0.489,0.392,0.798,0.391c0.24-0.001,0.466-0.087,0.653-0.25C26.945,17.035,27.006,16.334,26.631,15.862z M20.018,7.945
	c0,0,1.643-2.873-0.328-3.627S21.567,0,21.567,0c-1.408,3.171-0.845,3.611,0.235,4.506C22.881,5.401,20.018,7.945,20.018,7.945z
	 M16.225,7.945c0,0,1.642-2.873-0.329-3.627C13.926,3.564,17.773,0,17.773,0c-1.407,3.171-0.844,3.611,0.235,4.506
	C19.087,5.401,16.225,7.945,16.225,7.945z M12.386,7.945c0,0,1.642-2.873-0.328-3.627C10.087,3.564,13.934,0,13.934,0
	c-1.407,3.171-0.844,3.611,0.235,4.506C15.248,5.401,12.386,7.945,12.386,7.945z"/>
</svg>
