<?xml version="1.0" encoding="utf-8"?>
<!-- Generator: Adobe Illustrator 17.0.1, SVG Export Plug-In . SVG Version: 6.00 Build 0)  -->
<!DOCTYPE svg PUBLIC "-//W3C//DTD SVG 1.1//EN" "http://www.w3.org/Graphics/SVG/1.1/DTD/svg11.dtd">
<svg version="1.1" id="Слой_1" xmlns="http://www.w3.org/2000/svg" xmlns:xlink="http://www.w3.org/1999/xlink" x="0px" y="0px"
	 width="34.003px" height="20.993px" viewBox="0 0 34.003 20.993" enable-background="new 0 0 34.003 20.993" xml:space="preserve">
<path fill="#0D0F0F" d="M33.152,6.828l-3.158,1.948c0,0,2.996,4.669,2.565,7.132c-0.144,0.824-0.409,1.628-1.133,2.325
	c-1.703,1.639-5.151,2.76-9.127,2.76c-5.666,0-10.26-2.277-10.26-5.085c0-0.356,0.245-1.528,0.308-1.781
	c0.268-1.098,1.018-3.166,1.721-5.013c0,0.001-0.005,0.004-0.005,0.004c-0.036,0.021-0.072,0.038-0.109,0.055
	c0,0-0.328-1.403-1-2.585c-0.619-1.086-1.581-2.114-1.581-2.114c0.034-0.022,0.068-0.045,0.104-0.066c0,0,2.869-1.198,3.773-1.704
	c0.975-0.547,3.702-2.516,3.702-2.516c0.708-0.399,1.601-0.141,1.995,0.576l1.16,2.111c0.394,0.718,0.139,1.623-0.568,2.023
	c0,0-1.327,0.565-2.513,1.108c0.015,0.23-0.017,0.465-0.1,0.692l-1.75,4.803c1.508-0.431,3.256-0.679,5.123-0.679
	c1.054,0,2.07,0.079,3.027,0.225l-0.234-0.559c-0.532-1.267-0.19-2.669,0.752-3.396c0.153-0.118,5.467-3.331,5.467-3.331
	c0.837-0.515,1.925-0.247,2.433,0.6C34.253,5.208,33.987,6.312,33.152,6.828z M12.634,9.783c-0.339-0.324-1.534-0.904-2.22-0.584
	c0,0,0,0-0.001,0c-0.1,0.101-0.217,0.191-0.35,0.265c-0.036,0.021-0.075,0.025-0.112,0.043c0.536,0.85,0.857,1.855,0.857,2.939
	c0,3.027-2.42,5.48-5.403,5.48C2.42,17.926,0,15.473,0,12.446c0-3.024,2.42-5.477,5.405-5.477c1.213,0,2.322,0.421,3.224,1.106
	c0.122-0.151,0.267-0.29,0.454-0.396c0.133-0.075,0.27-0.127,0.407-0.162c0.51-0.355,0.71-1.698,0.666-2.23
	c-0.018-0.226,0.631-0.608,0.783-0.441c1,1.099,2.248,3.416,2.451,4.462C13.439,9.566,12.823,9.963,12.634,9.783z"/>
</svg>
