<?xml version="1.0" encoding="utf-8"?>
<!-- Generator: Adobe Illustrator 17.0.1, SVG Export Plug-In . SVG Version: 6.00 Build 0)  -->
<!DOCTYPE svg PUBLIC "-//W3C//DTD SVG 1.1//EN" "http://www.w3.org/Graphics/SVG/1.1/DTD/svg11.dtd">
<svg version="1.1" id="Слой_1" xmlns="http://www.w3.org/2000/svg" xmlns:xlink="http://www.w3.org/1999/xlink" x="0px" y="0px"
	 width="40px" height="29px" viewBox="0 0 40 29" enable-background="new 0 0 40 29" xml:space="preserve">
<path fill="#0D0F0F" d="M34.099,22.772h-16.58l-3.905,5.679C13.377,28.795,12.987,29,12.569,29s-0.809-0.205-1.046-0.549
	l-3.905-5.679H5.901C2.648,22.772,0,20.128,0,16.878V5.892C0,2.643,2.648,0,5.901,0h28.198C37.353,0,40,2.643,40,5.892v10.986
	C40,20.128,37.353,22.772,34.099,22.772z M37.464,5.892c0-1.853-1.51-3.36-3.365-3.36H5.901c-1.855,0-3.365,1.507-3.365,3.36v10.986
	c0,1.854,1.51,3.361,3.365,3.361h2.384c0.418,0,0.809,0.206,1.046,0.55l3.238,4.708l3.237-4.708c0.237-0.344,0.627-0.55,1.045-0.55
	h17.248c1.855,0,3.365-1.507,3.365-3.361V5.892z M31.01,16.422c-1.857,0-3.194-1.311-3.194-3.548c0-2.311,1.399-3.622,3.269-3.622
	c1.93,0,3.143,1.446,3.143,3.536C34.228,15.408,32.545,16.422,31.01,16.422z M31.047,10.599c-1.015,0-1.374,1.187-1.374,2.238
	c0,1.223,0.471,2.237,1.362,2.237c0.866,0,1.336-1.026,1.336-2.25C32.371,11.749,31.987,10.599,31.047,10.599z M24.734,6.347h1.832
	v9.939h-1.832V6.347z M21.256,6.347h1.832v9.939h-1.832V6.347z M15.811,13.393c0.048,1.174,0.89,1.644,1.88,1.644
	c0.681,0,1.214-0.124,1.684-0.284l0.26,1.26c-0.569,0.248-1.374,0.396-2.228,0.396c-2.129,0-3.342-1.335-3.342-3.473
	c0-1.978,1.139-3.684,3.156-3.684c1.671,0,2.76,1.187,2.76,3.412c0,0.272-0.012,0.531-0.049,0.729H15.811z M17.11,10.525
	c-0.879,0-1.251,0.915-1.299,1.595h2.475C18.298,11.403,18.013,10.525,17.11,10.525z M10.847,12.194H7.604v4.092H5.772V6.78h1.832
	v3.795h3.243V6.78h1.832v9.506h-1.832V12.194z"/>
</svg>
