<?xml version="1.0" encoding="utf-8"?>
<!-- Generator: Adobe Illustrator 17.0.1, SVG Export Plug-In . SVG Version: 6.00 Build 0)  -->
<!DOCTYPE svg PUBLIC "-//W3C//DTD SVG 1.1//EN" "http://www.w3.org/Graphics/SVG/1.1/DTD/svg11.dtd">
<svg version="1.1" id="Слой_1" xmlns="http://www.w3.org/2000/svg" xmlns:xlink="http://www.w3.org/1999/xlink" x="0px" y="0px"
	 width="40.004px" height="37px" viewBox="0 0 40.004 37" enable-background="new 0 0 40.004 37" xml:space="preserve">
<path fill="#0D0F0F" d="M20.193,7.513L19.16,8.029l-4.021-4.638l2.768-0.655L20.193,7.513L20.193,7.513z M20.887,7.253
	c0.026-0.363,0.009-0.789,0.012-1.157c0.004-0.792,0.007-1.583,0.011-2.375c0.004-1.183,0.008-2.366,0.011-3.549L20.922,0
	l2.771,0.138l-1.626,7.396l-1.198-0.117L20.887,7.253L20.887,7.253z M22.79,7.518l3.454-4.807l1.757,1.657l-4.637,3.95L22.79,7.518
	L22.79,7.518z M29.143,36.99c-0.303,0.106,0.115-0.673,0.236-0.998c0.208-0.557,0.691-0.848,1.233-1.038l1.268-0.445
	c0.704-0.248,0.824-0.465,0.595-1.178l-1.334-4.142c-0.258-0.802-0.631-1.431-1.386-1.848c-0.386-0.213-0.819-0.354-1.232-0.509
	c-0.513-0.193-0.989-0.404-1.447-0.71c-1.498-0.999-2.414-2.763-3.053-4.384L19.77,10.945l10.94-3.84l3.537,11.044
	c0.531,1.66,0.938,3.602,0.407,5.313c-0.163,0.524-0.399,0.985-0.676,1.455c-0.222,0.378-0.469,0.759-0.634,1.165
	c-0.323,0.795-0.214,1.517,0.094,2.3l1.59,4.053c0.273,0.698,0.505,0.792,1.208,0.545l1.268-0.446
	c0.542-0.189,1.104-0.265,1.618,0.038c0.3,0.177,1.119,0.523,0.816,0.63L29.143,36.99L29.143,36.99z M0.067,31.802
	c-0.305-0.103,0.51-0.458,0.808-0.639c0.511-0.31,1.072-0.242,1.616-0.059l1.274,0.429c0.707,0.238,0.937,0.142,1.202-0.56
	l1.537-4.072c0.297-0.788,0.397-1.511,0.065-2.302c-0.17-0.404-0.423-0.781-0.65-1.156c-0.283-0.467-0.525-0.925-0.694-1.447
	c-0.553-1.704-0.172-3.651,0.338-5.316L8.958,5.591l10.988,3.701l-4.114,10.846c-0.618,1.629-1.511,3.404-2.995,4.422
	c-0.455,0.311-0.927,0.529-1.439,0.728c-0.41,0.161-0.842,0.307-1.225,0.525c-0.749,0.427-1.114,1.061-1.362,1.865l-1.28,4.159
	c-0.22,0.716-0.097,0.932,0.61,1.17l1.273,0.429c0.545,0.183,1.032,0.467,1.247,1.023c0.125,0.323,0.553,1.097,0.248,0.995
	L0.067,31.802L0.067,31.802z M23.026,14.881h7.049l1.762,5.501c0.353,1.103,0.695,2.492,0.317,3.624
	c-0.182,0.548-0.446,1.199-0.838,1.69c0.996-0.428,1.511-1.77,1.821-2.7c0.45-1.348,0.017-3.059-0.404-4.37l-3.04-9.493
	l-7.847,2.754L23.026,14.881L23.026,14.881z M8.435,12.718h7.03l-2.919,7.694c-0.411,1.083-1.009,2.383-2.012,3.041
	c-0.485,0.317-1.099,0.667-1.713,0.813c1.049,0.275,2.291-0.463,3.115-1.003c1.194-0.783,1.922-2.393,2.41-3.68l3.536-9.323
	L10,7.605L8.435,12.718L8.435,12.718z M25.813,16.227c-0.529,0-0.959,0.426-0.959,0.951s0.43,0.95,0.959,0.95
	c0.529,0,0.958-0.425,0.958-0.95S26.342,16.227,25.813,16.227L25.813,16.227z M28.729,17.865c-0.308,0-0.557,0.247-0.557,0.553
	c0,0.304,0.249,0.552,0.557,0.552s0.557-0.248,0.557-0.552C29.286,18.112,29.037,17.865,28.729,17.865L28.729,17.865z
	 M27.674,20.592c-0.308,0-0.558,0.248-0.558,0.553c0,0.305,0.25,0.552,0.558,0.552c0.307,0,0.557-0.247,0.557-0.552
	C28.231,20.84,27.981,20.592,27.674,20.592L27.674,20.592z M29.957,21.832c-0.234,0-0.424,0.188-0.424,0.421
	c0,0.232,0.19,0.42,0.424,0.42c0.234,0,0.423-0.188,0.423-0.42C30.38,22.02,30.191,21.832,29.957,21.832L29.957,21.832z
	 M11.592,14.216c-0.529,0-0.958,0.426-0.958,0.95c0,0.525,0.429,0.951,0.958,0.951c0.529,0,0.958-0.426,0.958-0.951
	C12.55,14.642,12.121,14.216,11.592,14.216L11.592,14.216z M9.396,16.599c-0.369,0-0.667,0.297-0.667,0.662
	c0,0.366,0.298,0.662,0.667,0.662s0.667-0.296,0.667-0.662C10.063,16.896,9.765,16.599,9.396,16.599L9.396,16.599z M10.869,18.493
	c-0.234,0-0.424,0.189-0.424,0.421s0.19,0.42,0.424,0.42c0.234,0,0.424-0.188,0.424-0.42S11.103,18.493,10.869,18.493L10.869,18.493
	z M8.369,20.367c-0.234,0-0.423,0.188-0.423,0.42s0.189,0.421,0.423,0.421c0.234,0,0.424-0.189,0.424-0.421
	S8.603,20.367,8.369,20.367L8.369,20.367z"/>
</svg>
