<?xml version="1.0" encoding="utf-8"?>
<!-- Generator: Adobe Illustrator 17.0.1, SVG Export Plug-In . SVG Version: 6.00 Build 0)  -->
<!DOCTYPE svg PUBLIC "-//W3C//DTD SVG 1.1//EN" "http://www.w3.org/Graphics/SVG/1.1/DTD/svg11.dtd">
<svg version="1.1" id="Слой_1" xmlns="http://www.w3.org/2000/svg" xmlns:xlink="http://www.w3.org/1999/xlink" x="0px" y="0px"
	 width="40.002px" height="28.997px" viewBox="0 0 40.002 28.997" enable-background="new 0 0 40.002 28.997" xml:space="preserve">
<path fill="#0D0F0F" d="M35.377,14.519l2.07,5.018L22.45,24.243l-1.315-6.514l-10.994-5.98l-2.957,1.962l2.167-7.532l1.578,3.728
	l8.903,1.371l-1.534-7.597l11.164-3.503l0.743,1.801c0.575-0.824,1.378-1.675,2.353-1.912c0.724-0.177,1.438-0.001,2.063,0.507
	c1.829,1.488,5.306,5.202,5.381,8.612C40.054,11.551,37.279,13.478,35.377,14.519z M33.442,2.043
	C33.207,1.851,33.072,1.885,33,1.902c-0.636,0.155-1.452,1.346-1.899,2.251l3.551,8.605c1.657-0.939,3.501-2.327,3.474-3.53
	C38.07,6.725,35.224,3.493,33.442,2.043z M3.008,28.078c-0.936-1.485,1.294-6.74,1.294-6.74s1.692,4.204,1.827,6.005
	C6.264,29.144,3.969,29.603,3.008,28.078z M3.063,18.622C2.697,17.15,5.94,13.459,5.94,13.459s0.251,3.903-0.125,5.414
	C5.44,20.384,3.438,20.132,3.063,18.622z M0.01,23.731c-0.192-1.173,2.577-3.847,2.577-3.847s-0.053,3.064-0.443,4.221
	C1.756,25.261,0.207,24.936,0.01,23.731z"/>
</svg>
