<?xml version="1.0" encoding="utf-8"?>
<!-- Generator: Adobe Illustrator 17.0.1, SVG Export Plug-In . SVG Version: 6.00 Build 0)  -->
<!DOCTYPE svg PUBLIC "-//W3C//DTD SVG 1.1//EN" "http://www.w3.org/Graphics/SVG/1.1/DTD/svg11.dtd">
<svg version="1.1" id="Слой_1" xmlns="http://www.w3.org/2000/svg" xmlns:xlink="http://www.w3.org/1999/xlink" x="0px" y="0px"
	 width="40px" height="33.007px" viewBox="0 0 40 33.007" enable-background="new 0 0 40 33.007" xml:space="preserve">
<path fill="#0D0F0F" d="M21.408,2.244C20.9,1.73,20.901,0.897,21.41,0.384c0.507-0.513,1.331-0.512,1.838,0.003l8.922,9.04
	c0.508,0.514,0.508,1.347-0.002,1.86c-0.253,0.255-0.586,0.383-0.918,0.383c-0.334,0-0.667-0.128-0.921-0.386L21.408,2.244z
	 M7.83,11.283c-0.508-0.514-0.507-1.347,0.002-1.86l8.939-9.018c0.508-0.514,1.331-0.512,1.838,0.001
	c0.508,0.514,0.508,1.347-0.001,1.86l-8.939,9.019c-0.254,0.256-0.587,0.384-0.919,0.384C8.417,11.669,8.084,11.54,7.83,11.283z
	 M38.216,11.84c0.003-0.012,0.007-0.024,0.01-0.036h-0.363h-3.286c-0.177,0.416-0.428,0.808-0.765,1.148
	c-0.708,0.714-1.635,1.071-2.562,1.071c-0.93,0-1.86-0.359-2.568-1.077l-1.127-1.142h-3.371h-8.368h-3.367l-1.136,1.146
	c-0.708,0.714-1.636,1.072-2.563,1.072c-0.93,0-1.86-0.359-2.568-1.078c-0.333-0.337-0.581-0.727-0.757-1.14H2.137H1.774
	c0.003,0.012,0.007,0.024,0.01,0.036C0.773,12.011,0,12.894,0,13.964c0,1.193,0.956,2.16,2.137,2.16h1.092l0.022,0.231
	c-0.046,0.156-0.064,0.322-0.048,0.494l1.451,14.947c0.005,0.055,0.019,0.107,0.031,0.159c0.006,0.027,0.008,0.056,0.015,0.083
	c0.015,0.048,0.036,0.094,0.055,0.141c0.012,0.028,0.021,0.058,0.034,0.085c0.021,0.042,0.048,0.078,0.073,0.117
	c0.019,0.028,0.033,0.059,0.054,0.086c0.033,0.044,0.072,0.081,0.11,0.121c0.017,0.017,0.031,0.037,0.049,0.054
	c0.057,0.053,0.12,0.1,0.187,0.143c0.012,0.008,0.027,0.012,0.039,0.02c0.056,0.032,0.112,0.063,0.172,0.087
	c0.148,0.059,0.307,0.091,0.474,0.091l14.05,0.011c0.001,0,0.001,0.002,0.002,0.002c0.002,0,0.002-0.002,0.003-0.002l4.667,0.005
	c0.004,0,0.01,0,0.014,0h0.001l4.68,0.004c0,0,0.003,0,0.004,0c0,0,0,0,0.001,0l4.68,0.004l0,0h0.001h0.001
	c0.167,0,0.326-0.032,0.474-0.091c0.148-0.059,0.283-0.144,0.399-0.25c0.032-0.03,0.058-0.064,0.087-0.096
	c0.024-0.027,0.05-0.051,0.071-0.079c0.031-0.039,0.055-0.084,0.081-0.128c0.015-0.025,0.032-0.048,0.045-0.074
	c0.019-0.037,0.031-0.077,0.047-0.116c0.013-0.037,0.032-0.072,0.042-0.111c0.01-0.032,0.013-0.067,0.019-0.1
	c0.011-0.047,0.024-0.093,0.028-0.142l1.454-15.003c0.015-0.166-0.002-0.326-0.044-0.477l0.02-0.216h1.089
	c1.181,0,2.137-0.967,2.137-2.16C40,12.894,39.227,12.011,38.216,11.84z M5.922,17.02c0.816,0.361,1.682,0.559,2.555,0.599
	L8.72,21.61H6.339L5.922,17.02z M7.135,30.354l-0.556-6.115h2.3l0.37,6.117L7.135,30.354z M11.062,17.256
	c0.744-0.251,1.455-0.627,2.101-1.132h0.38l0.167,5.486h-2.384L11.062,17.256z M11.855,30.358l-0.37-6.119h2.304l0.186,6.121
	L11.855,30.358z M18.698,30.364l-2.12-0.002l-0.187-6.123h2.308L18.698,30.364z M18.699,21.61h-2.386l-0.167-5.486H18.7
	L18.699,21.61z M23.421,30.368L21.3,30.366l0.001-6.127h2.307L23.421,30.368z M23.688,21.61h-2.387l0.001-5.486h2.553L23.688,21.61z
	 M28.143,30.372l-2.119-0.002l0.187-6.131h2.304L28.143,30.372z M28.676,21.61H26.29l0.168-5.486h0.378
	c0.647,0.506,1.358,0.883,2.104,1.134L28.676,21.61z M32.863,30.376l-2.114-0.002l0.373-6.135h2.3L32.863,30.376z M33.663,21.61
	h-2.382l0.243-3.989c0.874-0.04,1.741-0.239,2.557-0.601L33.663,21.61z"/>
</svg>
