<?xml version="1.0" encoding="utf-8"?>
<!-- Generator: Adobe Illustrator 17.0.1, SVG Export Plug-In . SVG Version: 6.00 Build 0)  -->
<!DOCTYPE svg PUBLIC "-//W3C//DTD SVG 1.1//EN" "http://www.w3.org/Graphics/SVG/1.1/DTD/svg11.dtd">
<svg version="1.1" id="Слой_1" xmlns="http://www.w3.org/2000/svg" xmlns:xlink="http://www.w3.org/1999/xlink" x="0px" y="0px"
	 width="25.018px" height="29.998px" viewBox="0 0 25.018 29.998" enable-background="new 0 0 25.018 29.998" xml:space="preserve">
<path fill="#0D0F0F" d="M21.282,8.608c0,0-1.283,2.531-1.763,3.217c-0.48,0.686-0.632,4.202,1.694,4.974s3.948-2.595,3.795-4.907
	c-0.152-2.311-1.282-3.567-2.086-3.97c-0.803-0.403-1.42,0.201-1.42,0.201L21.282,8.608z M6.058,15.158
	c-0.598,0.686-2.204,2.73-2.787,3.199c-0.582,0.47-1.043,0.586-1.42,1.122c-0.376,0.537-0.974,1.674-0.871,3.3
	c0.102,1.625,0.955,4.089,2.889,5.361c1.934,1.271,3.678,0.82,4.02,0.786c0.343-0.033,0.411-0.186,1.667,0.485
	c1.257,0.671,2.833,0.671,3.43,0.47c0.598-0.201,1.66-0.336,2.121-0.235s2.41,0.805,3.932-0.652
	c1.523-1.458,2.052-2.163,2.395-2.849c0.342-0.686,1.797-1.942,0.548-4.321c-1.249-2.378-1.949-2.36-2.463-3.064
	c-0.514-0.705-1.199-1.793-1.626-2.647c-0.426-0.854-0.734-1.894-2.086-2.546c-1.351-0.653-1.93,0.335-2.855,0.335
	s-1.744-0.116-2.531-0.753c-0.788-0.638-2.243-0.369-3.08,0.552C6.503,14.622,6.058,15.158,6.058,15.158z M3.443,6.968
	c0,0-0.172-0.034-0.411-0.034c-0.24,0-1.318,0.168-2.326,2.01c-1.009,1.841-0.872,3.467,0,5.092
	c0.871,1.626,2.428,1.506,3.917,0.384c1.488-1.122,1.709-2.729,1.317-4.388C5.548,8.373,3.903,7.135,3.443,6.968z M11.121,1.491
	c0,0-0.171-0.436-0.308-0.671C10.676,0.585,10.078,0,9.103,0C8.129,0,6.572,1.875,5.734,4.321c-0.837,2.445,0.29,4.488,1.675,5.126
	c1.386,0.637,4.089,0.418,4.515-2.278C12.351,4.473,11.121,1.491,11.121,1.491z M14.49,1.558c0,0-1.367,1.991-1.538,3.751
	c-0.171,1.759-0.068,5.342,3.266,4.891c3.335-0.451,3.149-4.037,2.772-5.812s-0.891-3.217-1.626-3.669
	c-0.734-0.451-1.298-0.704-1.983-0.201C14.696,1.021,14.49,1.558,14.49,1.558z"/>
</svg>
