<?xml version="1.0" encoding="utf-8"?>
<!-- Generator: Adobe Illustrator 17.0.1, SVG Export Plug-In . SVG Version: 6.00 Build 0)  -->
<!DOCTYPE svg PUBLIC "-//W3C//DTD SVG 1.1//EN" "http://www.w3.org/Graphics/SVG/1.1/DTD/svg11.dtd">
<svg version="1.1" id="Слой_1" xmlns="http://www.w3.org/2000/svg" xmlns:xlink="http://www.w3.org/1999/xlink" x="0px" y="0px"
	 width="40.002px" height="38.001px" viewBox="0 0 40.002 38.001" enable-background="new 0 0 40.002 38.001" xml:space="preserve">
<path fill="#0D0F0F" d="M34.705,37.889v-5.25h5.297v5.25H34.705z M25.466,29.512h10.141v2.122H25.466V29.512z M29.635,17.561h2.028
	l2.873,7.707h-7.775L29.635,17.561z M23.309,20.358c-1.844,0.761-3.568,1.091-5.135,1.09c-0.004,0-0.008,0-0.012,0
	c-3.29,0-5.763-1.456-7.322-2.849c-1.574-1.403-2.326-2.76-2.387-2.866c-0.449-0.812-0.148-1.83,0.671-2.274
	c0.816-0.444,1.84-0.148,2.29,0.658c0.002,0.002,0.005,0.009,0.012,0.02c0.012,0.021,0.034,0.058,0.066,0.108
	c0.064,0.1,0.167,0.256,0.309,0.446c0.283,0.381,0.719,0.901,1.295,1.412c1.167,1.027,2.811,1.991,5.078,1.994
	c1.092,0,2.356-0.223,3.837-0.833c0.862-0.355,1.851,0.049,2.21,0.904C24.579,19.022,24.171,20.003,23.309,20.358z M16.336,11.655
	c-3.226-0.511-5.423-3.519-4.907-6.715c0.516-3.199,3.549-5.377,6.775-4.865c3.227,0.511,5.424,3.518,4.908,6.716
	C22.596,9.988,19.563,12.166,16.336,11.655z M13.635,15.675c-0.029-0.025-0.059-0.046-0.089-0.072
	c-0.552-0.489-0.957-0.982-1.201-1.31c-0.129-0.172-0.224-0.314-0.276-0.397l-0.023-0.037l-0.04-0.066
	c-0.418-0.747-1.212-1.211-2.073-1.211c-0.395,0-0.787,0.1-1.134,0.289c-0.555,0.301-0.957,0.798-1.135,1.399
	c-0.178,0.601-0.108,1.235,0.207,1.804c0.211,0.371,1.018,1.687,2.516,3.022c0.395,0.353,0.859,0.722,1.392,1.078
	c-0.838,2.165-1.597,4.556-1.749,6.841l5.755,6.543c0.696,0.792,0.862,1.915,0.423,2.871C15.769,37.385,14.807,38,13.747,38
	L2.704,38.001C1.21,38.001,0,36.8,0,35.319c0-1.48,1.21-2.68,2.704-2.68h5.097l-2.077-2.362c-2.101-0.365-4.308-1.288-4.437-4.601
	c0.23-4.968,1.104-7.798,3.57-11.985c1.813-3.034,5.045-3.613,7.067-2.844C13.704,11.525,14.272,13.735,13.635,15.675z
	 M33.691,28.563H23.55V26.44h10.141V28.563z M26.931,37.889h-5.297v-5.25h5.297V37.889z M33.466,37.889H28.17v-5.25h5.296V37.889z"
	/>
</svg>
