<?xml version="1.0" encoding="utf-8"?>
<!-- Generator: Adobe Illustrator 17.0.1, SVG Export Plug-In . SVG Version: 6.00 Build 0)  -->
<!DOCTYPE svg PUBLIC "-//W3C//DTD SVG 1.1//EN" "http://www.w3.org/Graphics/SVG/1.1/DTD/svg11.dtd">
<svg version="1.1" id="Слой_1" xmlns="http://www.w3.org/2000/svg" xmlns:xlink="http://www.w3.org/1999/xlink" x="0px" y="0px"
	 width="28.995px" height="40.005px" viewBox="0 0 28.995 40.005" enable-background="new 0 0 28.995 40.005" xml:space="preserve">
<path fill="#0D0F0F" d="M28.52,28.461H0.475C0.212,28.461,0,28.25,0,27.99c0-0.261,0.212-0.472,0.475-0.472H28.52
	c0.262,0,0.475,0.211,0.475,0.472C28.995,28.25,28.782,28.461,28.52,28.461z M18.999,26.922v-1.676l0.583-0.217v1.893H18.999z
	 M18.999,24.334v-4.245c0.607,0.104,1.069,0.626,1.069,1.258v1.728C20.068,23.708,19.606,24.23,18.999,24.334z M18.86,15.067
	c-0.013,0.131-0.397,1.663-0.397,1.663l-0.016,10.192h-5.989c0.478-0.331,0.793-0.88,0.793-1.501c0-1.004-0.825-1.823-1.84-1.824
	h-1.018l-0.003-3.376l-0.002,0.001l-0.012-0.002c0.004-0.019,0.012-0.038,0.012-0.058c0-0.158-0.129-0.286-0.289-0.286
	s-0.288,0.128-0.288,0.289c0,0,0.002,0.002,0.003,0.005l-0.602,3.427H8.631c-0.22,0-0.4,0.177-0.4,0.397h3.179
	c0.797,0.001,1.439,0.638,1.439,1.427c0,0.789-0.642,1.432-1.439,1.433l0,0H7.43v-0.001c-0.1,0-0.202-0.009-0.305-0.032
	c-0.778-0.169-1.271-0.93-1.101-1.703c0,0,0-0.001,0.001-0.002H6.024c0,0,1.033-5.853,1.036-5.867
	c0.132-0.871,0.659-1.613,1.395-2.04l-0.001-0.002l0.036-0.019c0.041-0.024,7.655-3.983,7.655-3.983l1.046-11.909V1.294
	c0.075-0.787,0.78-1.362,1.572-1.287c0.793,0.074,1.37,0.769,1.296,1.557l-0.001,0.002L18.86,15.067z M11.411,14.645
	c-2.221,0-4.02-1.787-4.02-3.993c0-2.204,1.799-3.993,4.02-3.993c2.218,0,4.017,1.789,4.017,3.993
	C15.428,12.858,13.629,14.645,11.411,14.645z M3.009,39.65c0,0.193-0.156,0.349-0.351,0.349c-0.194,0-0.351-0.156-0.351-0.349
	c0-0.031,0-10.583,0-10.583h0.702C3.009,29.067,3.009,39.619,3.009,39.65z M9.819,29.057v0.751H9.236v-0.751H9.819z M8.593,30.404
	h1.226v0.943H8.593c-0.163,0-0.294-0.211-0.294-0.472C8.299,30.615,8.43,30.404,8.593,30.404z M9.819,39.716
	c0,0.16-0.13,0.289-0.291,0.289c-0.161,0-0.292-0.129-0.292-0.289v-7.773h0.583V39.716z M18.463,38.141
	c0,1.026-0.837,1.858-1.871,1.858c-1.034,0-1.871-0.832-1.871-1.858l-0.011-6.185c0-0.158-0.129-0.286-0.288-0.286
	c-0.16,0-0.289,0.128-0.289,0.286v6.185c0,1.026-0.837,1.858-1.871,1.858c-1.033,0-1.871-0.832-1.871-1.858l-0.003-9.084h8.055
	L18.463,38.141z M19.582,29.808h-0.583v-0.751h0.583V29.808z M20.402,30.875c0,0.261-0.132,0.472-0.294,0.472h-1.109v-0.943h1.109
	C20.27,30.404,20.402,30.615,20.402,30.875z M19.582,39.716c0,0.16-0.13,0.289-0.292,0.289c-0.161,0-0.291-0.129-0.291-0.289v-7.773
	h0.583V39.716z M26.688,39.65c0,0.193-0.157,0.349-0.352,0.349c-0.193,0-0.35-0.156-0.35-0.349c0-0.031,0-10.583,0-10.583h0.702
	C26.688,29.067,26.688,39.619,26.688,39.65z"/>
</svg>
