<?xml version="1.0" encoding="utf-8"?>
<!-- Generator: Adobe Illustrator 17.0.1, SVG Export Plug-In . SVG Version: 6.00 Build 0)  -->
<!DOCTYPE svg PUBLIC "-//W3C//DTD SVG 1.1//EN" "http://www.w3.org/Graphics/SVG/1.1/DTD/svg11.dtd">
<svg version="1.1" id="Слой_1" xmlns="http://www.w3.org/2000/svg" xmlns:xlink="http://www.w3.org/1999/xlink" x="0px" y="0px"
	 width="32.986px" height="40.951px" viewBox="0 0 32.986 40.951" enable-background="new 0 0 32.986 40.951" xml:space="preserve">
<path fill="#0D0F0F" d="M32.398,30.846c-0.323,0.838-0.861,1.902-1.198,2.363c-0.334,0.462-0.916,1.162-1.288,1.557
	c-0.373,0.394-0.73,0.965-0.795,1.268c-0.056,0.26-0.784,0.437-1.705,0.437c-0.151,0-0.307-0.005-0.467-0.014
	c-1.129-0.072-2.839-0.817-3.797-1.659c-0.96-0.841-1.772-1.791-1.806-2.112c-0.035-0.321-0.25-1.123-0.479-1.785
	c-0.228-0.662-0.533-1.657-0.677-2.21c-0.144-0.554-0.237-1.318-0.205-1.698c0.03-0.38,0.232-1.149,0.449-1.711
	c0.19-0.493,0.498-0.976,0.735-1.184l0.98,0.987c-0.074,0.11-0.134,0.22-0.159,0.311c-0.025,0.093,0.018,0.139,0.11,0.139
	c0.114,0,0.305-0.072,0.533-0.212c0.411-0.25,0.894-0.63,1.072-0.845c0.179-0.214,0.366-0.582,0.414-0.816
	c0.048-0.236,0.371-0.535,0.715-0.666c0.345-0.13,0.836-0.24,1.091-0.247c0.005,0,0.01,0,0.016,0c0.255,0,0.647,0.156,0.881,0.351
	c0.239,0.199,0.575,0.469,0.744,0.599c0.135,0.103,0.407,0.167,0.668,0.167c0.073,0,0.144-0.005,0.211-0.015
	c0.079-0.012,0.165-0.018,0.253-0.018c0.259,0,0.532,0.05,0.682,0.132c0.2,0.111,0.443,0.465,0.537,0.788
	c0.095,0.323,0.398,0.606,0.673,0.629c0.275,0.023,0.616,0.164,0.758,0.316c0.141,0.151,0.287,0.467,0.322,0.704
	c0.035,0.235,0.229,0.536,0.43,0.668c0.202,0.132,0.484,0.381,0.628,0.553c0.144,0.173,0.262,0.626,0.262,1.008
	C32.986,29.012,32.722,30.01,32.398,30.846z M20.798,16.62l0.286,4.073l-0.001,0.001l2.677,2.694
	c-0.028,0.061-0.064,0.12-0.078,0.184c-0.03,0.146-0.176,0.449-0.319,0.62c-0.106,0.127-0.404,0.375-0.728,0.596l-2.809-2.828
	l-4.046-0.288l-6.198,6.24l-3.017-3.914l0.11-0.111L23.109,7.344l3.886,3.037l-0.141,0.143L20.798,16.62z M24.859,9.162
	L8.372,25.761l1.243,1.614l16.847-16.96L24.859,9.162z M11.645,0.488c-0.129-0.048-0.195-0.193-0.146-0.324
	c0.048-0.13,0.193-0.198,0.322-0.147c4.168,1.573,7.937,3.902,11.23,6.923l-0.354,0.356C19.455,4.326,15.746,2.037,11.645,0.488z
	 M17.207,12.823c-2.462-2.144-5.218-3.685-8.385-4.681C8.703,8.104,8.636,7.976,8.673,7.855s0.164-0.186,0.285-0.15
	c3.239,1.019,6.056,2.597,8.573,4.793L17.207,12.823z M11.696,18.372c-2.027-1.654-4.257-2.732-6.913-3.332
	c-0.124-0.028-0.201-0.152-0.173-0.276c0.028-0.125,0.149-0.205,0.274-0.175c2.745,0.62,5.046,1.738,7.138,3.455L11.696,18.372z
	 M6.164,23.941c-2.156-1.623-4.12-2.044-5.937-2.211c-0.137-0.013-0.239-0.136-0.226-0.275c0.012-0.138,0.136-0.237,0.272-0.227
	c1.822,0.168,3.948,0.611,6.248,2.354L6.164,23.941z M24.134,36.908c0.789,0.375,2.76,1.229,4.353,1.229c0.013,0,0.025,0,0.038,0
	l-0.843,2.814c-1.669-0.021-3.549-0.999-4.386-1.399c-1.176-0.561-2.197-1.638-2.777-2.356l1.002-1.964
	C22.15,35.818,23.02,36.379,24.134,36.908z"/>
</svg>
