<?xml version="1.0" encoding="utf-8"?>
<!-- Generator: Adobe Illustrator 17.0.1, SVG Export Plug-In . SVG Version: 6.00 Build 0)  -->
<!DOCTYPE svg PUBLIC "-//W3C//DTD SVG 1.1//EN" "http://www.w3.org/Graphics/SVG/1.1/DTD/svg11.dtd">
<svg version="1.1" id="Слой_1" xmlns="http://www.w3.org/2000/svg" xmlns:xlink="http://www.w3.org/1999/xlink" x="0px" y="0px"
	 width="45.994px" height="45.999px" viewBox="0 0 45.994 45.999" enable-background="new 0 0 45.994 45.999" xml:space="preserve">
<path fill="#0D0F0F" d="M0,42.931L42.894,0.396l3.094,3.068L3.093,45.999L0,42.931z M3.579,27.848h9.283l-5.358,5.313H3.579
	C5.891,33.161,5.891,27.848,3.579,27.848z M26.341,10.934c-0.712,0.206-1.466,0.317-2.244,0.317h-3.052v1.185
	c0,3.512-2.888,6.376-6.429,6.376H9.631c-2.579,0-4.785,1.408-5.853,3.736l-1.06,2.311v-7.232c0-3.512,2.889-6.376,6.43-6.376h2.133
	V7.97c0-4.39,3.61-7.97,8.037-7.97h5.446c2.819,0,5.171,2.023,5.57,4.79C30.732,7.556,29.047,10.151,26.341,10.934z M1.843,32.984
	H1.731c-2.159,0-2.159-4.96,0-4.96h0.112C4.002,28.024,4.002,32.984,1.843,32.984z M29.595,27.848c2.312,0,2.312,5.313,0,5.313
	H18.388l5.357-5.313H29.595z M31.356,27.848H44.26c2.312,0,2.312,5.313,0,5.313H31.356C33.668,33.161,33.668,27.848,31.356,27.848z"
	/>
</svg>
