<?xml version="1.0" encoding="utf-8"?>
<!-- Generator: Adobe Illustrator 17.0.1, SVG Export Plug-In . SVG Version: 6.00 Build 0)  -->
<!DOCTYPE svg PUBLIC "-//W3C//DTD SVG 1.1//EN" "http://www.w3.org/Graphics/SVG/1.1/DTD/svg11.dtd">
<svg version="1.1" id="Слой_1" xmlns="http://www.w3.org/2000/svg" xmlns:xlink="http://www.w3.org/1999/xlink" x="0px" y="0px"
	 width="24px" height="39.995px" viewBox="0 0 24 39.995" enable-background="new 0 0 24 39.995" xml:space="preserve">
<path fill="#0D0F0F" d="M23.585,13.966c-0.002,0.002-3.983,4.7-3.983,4.7h-0.001v0.001c-0.61,0.7-1.664,0.776-2.367,0.175
	l-0.002,0.002l-0.573-0.481c0.002,0.459,0.003,5.962,0.003,5.962l3.835,4.136l-0.005,0.004c0.496,0.558,0.657,1.3,0.489,1.977
	l-1.953,7.886c-0.289,1.174-1.476,1.891-2.653,1.603c-1.176-0.289-1.895-1.473-1.606-2.647l1.693-6.728l-4.277-4.597
	c-0.006,0.004-0.012,0.005-0.017,0.009c-0.187,0.178-0.196,0.474-0.018,0.662l1.351,1.429l-1.327,3.537
	c-0.273,0.734-0.898,1.232-1.614,1.379c-0.124,0.026-7.876,1.755-7.876,1.755c-1.18,0.271-2.357-0.464-2.628-1.642
	c-0.271-1.179,0.465-2.352,1.644-2.624l6.793-1.547l1.931-5.165c-0.139-0.435-0.205-0.898-0.22-1.36
	c5.307-2.417,7.063-5.272,7.448-7.596l0.472,0.397l2.914-3.438c0.613-0.701,1.679-0.773,2.381-0.164
	C24.125,12.202,24.197,13.261,23.585,13.966z M13.313,9.401c-2.599,0-4.707-2.103-4.707-4.7C8.606,2.106,10.714,0,13.313,0
	c2.603,0,4.711,2.106,4.711,4.701C18.024,7.298,15.916,9.401,13.313,9.401z M8.918,14.248c-0.181,0.198-0.42,0.418-0.726,0.645
	l0.189-0.773C8.572,14.166,8.746,14.207,8.918,14.248z M9.456,14.376L9.417,24.419l-3.665-0.018c0,0-1.378-0.423-1.218-2.283
	c0.067-0.775,0.169-1.682,0.271-2.618c0.004,0.001,0.007,0.003,0.011,0.004c0.178,0.046,0.358,0.068,0.535,0.068
	c0.96,0,1.84-0.647,2.092-1.622l0.579-2.363c0.684-0.425,1.13-0.857,1.416-1.215C9.444,14.374,9.45,14.375,9.456,14.376z
	 M13.27,11.348c0-0.001,0.001-0.001,0.001-0.003c0.06-0.251-0.095-0.504-0.347-0.563l-0.686-0.164
	c0.373-0.151,0.779-0.236,1.205-0.236c1.327,0,2.464,0.804,2.951,1.95c1.234,4.529-4.647,7.905-6.194,8.705
	c0.004-1.845,0.016-4.873,0.022-6.477c2.108,0.504,2.112,0.504,2.127,0.507c0.249,0.044,0.486-0.121,0.536-0.369
	c0.003-0.017-0.002-0.033,0-0.051c-0.151,0.005-0.305-0.003-0.459-0.041c-0.003-0.001-4.389-1.049-4.389-1.049l-1.049,4.282
	c-0.233,0.901-1.153,1.443-2.056,1.212c-0.903-0.231-1.443-1.144-1.213-2.048c0,0,1.459-5.886,1.459-5.887
	c0.231-0.898,1.139-1.437,2.038-1.215l6.021,1.436C13.249,11.34,13.259,11.346,13.27,11.348z"/>
</svg>
