<?xml version="1.0" encoding="utf-8"?>
<!-- Generator: Adobe Illustrator 17.0.1, SVG Export Plug-In . SVG Version: 6.00 Build 0)  -->
<!DOCTYPE svg PUBLIC "-//W3C//DTD SVG 1.1//EN" "http://www.w3.org/Graphics/SVG/1.1/DTD/svg11.dtd">
<svg version="1.1" id="Слой_1" xmlns="http://www.w3.org/2000/svg" xmlns:xlink="http://www.w3.org/1999/xlink" x="0px" y="0px"
	 width="62.306px" height="54.823px" viewBox="0 0 62.306 54.823" enable-background="new 0 0 62.306 54.823" xml:space="preserve">
<path fill="#291D11" d="M61.427,5.557h-6.86v4.365c0,2.027-1.715,3.742-3.898,3.742c-2.183,0-3.898-1.715-3.898-3.742V5.557h-5.145
	v4.365c0,2.027-1.715,3.742-3.898,3.742c-2.183,0-3.898-1.715-3.898-3.742V5.557h-5.145v4.365c0,2.027-1.715,3.742-3.898,3.742
	s-3.898-1.715-3.898-3.742V5.557h-5.145v4.365c0,2.027-1.715,3.742-3.898,3.742s-3.898-1.715-3.898-3.742V5.557h-6.86
	C0.468,5.557,0,6.025,0,6.648v47.083c0,0.624,0.468,1.091,1.091,1.091h60.024c0.624,0,1.091-0.468,1.091-1.091V6.648
	C62.518,6.025,62.05,5.557,61.427,5.557z M58.932,50.769c0,0.312-0.312,0.624-0.624,0.624H4.521c-0.312,0-0.624-0.312-0.624-0.624
	V20.368c0-0.312,0.312-0.624,0.624-0.624h53.787c0.312,0,0.624,0.312,0.624,0.624V50.769z"/>
<path fill="#291D11" d="M9.666,4.31c0-1.247,1.091-2.339,2.339-2.339s2.339,1.091,2.339,2.339v4.365
	c0,1.247-1.091,2.339-2.339,2.339S9.666,9.922,9.666,8.675V4.31L9.666,4.31z"/>
<path fill="#291D11" d="M22.606,4.31c0-1.247,1.091-2.339,2.339-2.339s2.339,1.091,2.339,2.339v4.365
	c0,1.247-1.091,2.339-2.339,2.339s-2.339-1.091-2.339-2.339V4.31L22.606,4.31z"/>
<path fill="#291D11" d="M35.391,4.31c0-1.247,1.091-2.339,2.339-2.339s2.339,1.091,2.339,2.339v4.365
	c0,1.247-1.091,2.339-2.339,2.339s-2.339-1.091-2.339-2.339L35.391,4.31L35.391,4.31z"/>
<path fill="#291D11" d="M48.331,4.31c0-1.247,1.091-2.339,2.339-2.339c1.247,0,2.339,1.091,2.339,2.339v4.365
	c0,1.247-1.091,2.339-2.339,2.339c-1.247,0-2.339-1.091-2.339-2.339V4.31L48.331,4.31z"/>
<path fill="#291D11" d="M17.15,38.141h5.145c0,0.935,0.312,1.559,0.78,2.027c0.468,0.468,1.091,0.624,2.027,0.624
	c0.78,0,1.403-0.156,1.715-0.624c0.468-0.312,0.624-0.935,0.624-1.559c0-0.78-0.312-1.247-0.78-1.559
	c-0.468-0.312-1.247-0.468-2.339-0.468h-0.468v-3.118h0.312c0.935,0,1.715-0.156,2.183-0.468c0.468-0.312,0.78-0.78,0.78-1.403
	s-0.156-0.935-0.468-1.247c-0.312-0.312-0.935-0.468-1.559-0.468c-0.78,0-1.403,0.156-1.715,0.468
	c-0.468,0.312-0.624,0.78-0.624,1.559h-4.989c0-1.871,0.78-3.43,2.183-4.521s3.274-1.715,5.457-1.715s3.898,0.468,5.145,1.403
	c1.247,0.935,1.871,2.339,1.871,3.898c0,0.78-0.156,1.559-0.468,2.183c-0.312,0.624-0.935,1.091-1.559,1.403
	c0.935,0.312,1.559,0.78,1.871,1.559c0.468,0.624,0.624,1.559,0.624,2.65c0,2.027-0.78,3.586-2.183,4.677s-3.43,1.715-5.924,1.715
	c-2.339,0-4.209-0.624-5.613-1.871s-2.027-2.806-2.027-4.833L17.15,38.141L17.15,38.141z"/>
<path fill="#291D11" d="M39.288,44.689V33.932h-4.209V30.19c1.715,0,2.962-0.312,3.898-0.935c0.78-0.624,1.403-1.559,1.559-2.962
	h4.209v18.397H39.288L39.288,44.689z"/>
</svg>
