<?xml version="1.0" encoding="utf-8"?>
<!-- Generator: Adobe Illustrator 17.0.1, SVG Export Plug-In . SVG Version: 6.00 Build 0)  -->
<!DOCTYPE svg PUBLIC "-//W3C//DTD SVG 1.1//EN" "http://www.w3.org/Graphics/SVG/1.1/DTD/svg11.dtd">
<svg version="1.1" id="Слой_1" xmlns="http://www.w3.org/2000/svg" xmlns:xlink="http://www.w3.org/1999/xlink" x="0px" y="0px"
	 width="40.001px" height="38.002px" viewBox="0 0 40.001 38.002" enable-background="new 0 0 40.001 38.002" xml:space="preserve">
<path fill="#0D0F0F" d="M39.397,37.519V20.407c0-0.627-0.327-1.176-0.818-1.49c0.037,0.793-0.413,1.463-1.039,1.537
	c-0.595,0.071-1.156-0.355-1.409-0.983c-0.17,0.272-0.27,0.592-0.27,0.936c0,0.167-0.135,0.302-0.302,0.302
	c-0.167,0-0.302-0.135-0.302-0.302c0-0.651,0.264-1.241,0.69-1.671c-0.624-3.022-1.782-5.906-3.418-8.518h-1.385v0.583L35.589,26.8
	h-3.746c0.162,3.188-0.095,6.392-0.775,9.527c-0.25,1.155-1.235,1.879-2.108,1.624c-0.876-0.255-1.351-1.296-1.129-2.327
	c0.63-2.904,0.86-5.872,0.694-8.824h-1.933c-0.165,2.952,0.064,5.92,0.694,8.824c0.222,1.031-0.253,2.072-1.128,2.327
	c-0.874,0.255-1.859-0.469-2.109-1.624c-0.68-3.135-0.937-6.339-0.774-9.527h-3.746l4.444-15.999v-0.583h-0.657
	c-0.69,3.096-1.885,6.056-3.544,8.769c-0.115,0.19-0.26,0.348-0.42,0.472v0.001c-1.396,1.07-2.491,0.166-2.491,0.166v-0.001
	c-0.286-0.204-0.528-0.521-0.66-0.919c-1.071-3.197-1.633-6.537-1.674-9.901h-0.486v12.526c0.002,0.009,0.005,0.018,0.007,0.027
	c1.014,4.941,0.985,10.04-0.084,14.969c-0.25,1.155-1.235,1.879-2.108,1.624c-0.875-0.255-1.351-1.296-1.129-2.327
	c0.969-4.466,0.997-9.086,0.083-13.564H10.1c-0.914,4.478-0.887,9.098,0.082,13.564c0.222,1.031-0.253,2.072-1.128,2.327
	c-0.874,0.255-1.859-0.469-2.108-1.624c-1.07-4.929-1.098-10.028-0.084-14.969c0.002-0.009,0.005-0.018,0.007-0.027V8.805H5.732
	c-1.142,2.906-1.753,5.998-1.797,9.128c-0.003,0.212-0.041,0.417-0.107,0.605c0.556,0.434,0.916,1.11,0.916,1.869
	c0,0.167-0.135,0.302-0.302,0.302c-0.166,0-0.301-0.135-0.301-0.302c0-0.535-0.24-1.014-0.616-1.339
	c-0.221,0.26-0.516,0.43-0.849,0.448c-0.441,0.025-0.849-0.253-1.088-0.693c-0.583,0.29-0.984,0.889-0.984,1.584v17.112H0V20.407
	c0-0.959,0.573-1.785,1.394-2.159c-0.019-0.113-0.028-0.231-0.026-0.351C1.423,13.93,2.306,10.018,3.96,6.413
	c0.325-0.709,0.99-1.098,1.562-1.006c0.055-0.01,0.112-0.015,0.171-0.015h1.176h0.21c0.686,1.151,1.942,1.923,3.376,1.923
	c1.434,0,2.69-0.772,3.376-1.923h0.21h1.778c0.13,0,0.252,0.026,0.363,0.071c0.603,0.185,1.016,0.867,0.983,1.625
	c-0.141,3.195,0.233,6.389,1.104,9.461c1.408-2.586,2.377-5.386,2.865-8.298c0.131-0.771,0.76-1.342,1.448-1.257
	c0.001,0,0.002,0,0.003,0h1.388h0.288c0.7,1.082,1.917,1.799,3.298,1.799s2.597-0.717,3.298-1.799h0.287h1.458
	c0.006,0,0.011,0.002,0.016,0.002c0.482-0.012,1.021,0.262,1.377,0.778c2.17,3.138,3.685,6.679,4.46,10.412
	c0.901,0.337,1.546,1.204,1.546,2.221v17.112H39.397z M27.559,8.248c-1.869,0-3.384-1.515-3.384-3.385
	c0-1.869,1.515-3.385,3.384-3.385s3.384,1.516,3.384,3.385C30.943,6.733,29.428,8.248,27.559,8.248z M10.455,6.771
	c-1.869,0-3.384-1.516-3.384-3.385C7.071,1.516,8.586,0,10.455,0c1.869,0,3.384,1.516,3.384,3.386
	C13.839,5.255,12.324,6.771,10.455,6.771z"/>
</svg>
