<?xml version="1.0" encoding="utf-8"?>
<!-- Generator: Adobe Illustrator 17.0.1, SVG Export Plug-In . SVG Version: 6.00 Build 0)  -->
<!DOCTYPE svg PUBLIC "-//W3C//DTD SVG 1.1//EN" "http://www.w3.org/Graphics/SVG/1.1/DTD/svg11.dtd">
<svg version="1.1" id="Слой_1" xmlns="http://www.w3.org/2000/svg" xmlns:xlink="http://www.w3.org/1999/xlink" x="0px" y="0px"
	 width="41.005px" height="30.01px" viewBox="0 0 41.005 30.01" enable-background="new 0 0 41.005 30.01" xml:space="preserve">
<path fill="#0D0F0F" d="M40.271,10.942c-0.86,1.07-3.107,0.313-4.621,0.625c-0.768,0.157-2.559,2.051-3.312,2.978
	c-3.786-0.947-5.668-3.297-6.06-4.002c0.065-1.854,1.621-5.694,4.565-6.803c-0.161-1.397,0.062-2.547,1.642-3.369
	c1.328-0.691,2.885-0.309,2.256,0.265c-1.797,1.646-0.762,3.215-0.692,3.271c0.085,0.069,1.101,1.779,2.688,2.278
	c1.119,0.35,4.233,0.941,4.265,2.32C41.032,9.9,40.874,10.194,40.271,10.942z M34.012,6.045c-0.613,0.028-1.086,0.538-1.056,1.139
	c0.028,0.603,0.547,1.066,1.159,1.039c0.613-0.028,1.086-0.539,1.057-1.141C35.144,6.482,34.624,6.016,34.012,6.045z M30.489,15.914
	c0.283,0.239,0.492,0.565,0.566,0.953l2.137,11.155c0.16,0.835-0.34,1.654-1.165,1.91c-0.171,0.053-0.344,0.078-0.514,0.078
	c-0.656,0-1.273-0.373-1.555-0.987l-3.153-6.857c-0.979,0.531-2.085,1.003-2.924,1.131c-3.966,0.601-10.913-4.178-11.16-4.199
	c-1.747,1.209-2.606,10.66-5.736,10.66c-3.131,0-1.138-12.493-1.094-12.73c0.321-1.629,0.812-2.851,1.439-3.779
	c0.03-0.067,0.061-0.137,0.089-0.196C4.97,12.002,2.362,10.206,0.25,7.141C-0.201,6.487-0.024,5.6,0.643,5.161
	c0.664-0.441,1.568-0.27,2.016,0.385c2.221,3.255,5.151,4.78,7.608,5.489c6.165-3.237,7.89,2.72,15.277,0.069
	c1.03,1.216,2.151,2.401,4.947,4.801C30.491,15.908,30.49,15.911,30.489,15.914z"/>
</svg>
