<?xml version="1.0" encoding="utf-8"?>
<!-- Generator: Adobe Illustrator 17.0.1, SVG Export Plug-In . SVG Version: 6.00 Build 0)  -->
<!DOCTYPE svg PUBLIC "-//W3C//DTD SVG 1.1//EN" "http://www.w3.org/Graphics/SVG/1.1/DTD/svg11.dtd">
<svg version="1.1" id="Слой_1" xmlns="http://www.w3.org/2000/svg" xmlns:xlink="http://www.w3.org/1999/xlink" x="0px" y="0px"
	 width="40.011px" height="25.003px" viewBox="0 0 40.011 25.003" enable-background="new 0 0 40.011 25.003" xml:space="preserve">
<path fill="#0D0F0F" d="M38.604,7.942H23.287c-2.589,0-5.919-0.421-8.388-1.201L1.022,2.761C0.275,2.549-0.158,1.77,0.054,1.022
	c0.213-0.747,0.991-1.18,1.738-0.968l13.879,3.98C18.095,4.709,21,5.14,23.285,5.125h15.319c0.777,0,1.407,0.63,1.407,1.408
	S39.381,7.942,38.604,7.942z M23.285,9.351h12.568l-1.5,7.228c-0.387,1.869-1.569,3.48-3.899,3.48H10.483
	c-2.33,0-3.489-1.611-3.899-3.48L4.061,5.097L14.43,8.07C17.41,8.922,20.188,9.315,23.285,9.351z M10.412,21.468h2.023l-1.347,3.09
	c-0.39,0.856-1.711,0.369-1.452-0.536L10.412,21.468z M31.302,24.022c0.258,0.905-1.062,1.392-1.453,0.536l-1.347-3.09h2.023
	L31.302,24.022z"/>
</svg>
