<?xml version="1.0" encoding="utf-8"?>
<!-- Generator: Adobe Illustrator 17.0.1, SVG Export Plug-In . SVG Version: 6.00 Build 0)  -->
<!DOCTYPE svg PUBLIC "-//W3C//DTD SVG 1.1//EN" "http://www.w3.org/Graphics/SVG/1.1/DTD/svg11.dtd">
<svg version="1.1" id="Слой_1" xmlns="http://www.w3.org/2000/svg" xmlns:xlink="http://www.w3.org/1999/xlink" x="0px" y="0px"
	 width="38.995px" height="36px" viewBox="0 0 38.995 36" enable-background="new 0 0 38.995 36" xml:space="preserve">
<path fill="#0D0F0F" d="M38.388,21.158c-0.623,0.368-1.432,0.169-1.805-0.444l-2.971-5.797l2.619,13.633h-2.633v5.667
	c0,0.985-0.548,1.783-1.224,1.783h-0.023h-0.929h-0.023c-0.676,0-1.225-0.798-1.225-1.783V28.55h-1.336v5.667
	c0,0.985-0.548,1.783-1.224,1.783h-0.023h-0.929h-0.024c-0.676,0-1.224-0.798-1.224-1.783V28.55h-2.609l2.632-13.705l-3.007,5.869
	c-0.374,0.613-1.183,0.812-1.806,0.444c-0.623-0.368-0.751-1.125-0.452-1.776c1.325-2.878,3.638-9.975,8.819-10.494
	c0.178-0.018,0.852-0.018,1.03,0c5.182,0.519,7.495,7.616,8.819,10.494C39.14,20.033,39.012,20.79,38.388,21.158z M29.395,8.203
	c-2.302,0-4.168-1.837-4.168-4.102S27.093,0,29.395,0s4.168,1.836,4.168,4.101S31.697,8.203,29.395,8.203z M18.371,21.158
	c-0.623,0.368-1.432,0.169-1.806-0.444l-3.007-5.869v9.852c0.015,0.227,0.023,0.354,0.023,0.354v0.288v8.878
	c0,0.985-0.549,1.783-1.224,1.783h-0.024h-0.928h-0.024c-0.676,0-1.224-0.798-1.224-1.783v-9.463H8.821v9.463
	C8.821,35.202,8.272,36,7.596,36H7.573H6.644H6.621c-0.676,0-1.224-0.798-1.224-1.783v-8.878v-0.288c0,0,0.007-0.127,0.023-0.354
	v-9.852l-3.007,5.869c-0.374,0.613-1.183,0.812-1.806,0.444c-0.624-0.368-0.752-1.125-0.452-1.776
	c1.324-2.878,3.637-9.975,8.819-10.494c0.178-0.018,0.852-0.018,1.03,0c5.182,0.519,7.494,7.616,8.818,10.494
	C19.122,20.033,18.994,20.79,18.371,21.158z M9.377,8.203c-2.302,0-4.168-1.837-4.168-4.102S7.075,0,9.377,0
	s4.168,1.836,4.168,4.101S11.679,8.203,9.377,8.203z"/>
</svg>
