<?xml version="1.0" encoding="utf-8"?>
<!-- Generator: Adobe Illustrator 17.0.1, SVG Export Plug-In . SVG Version: 6.00 Build 0)  -->
<!DOCTYPE svg PUBLIC "-//W3C//DTD SVG 1.1//EN" "http://www.w3.org/Graphics/SVG/1.1/DTD/svg11.dtd">
<svg version="1.1" id="Слой_1" xmlns="http://www.w3.org/2000/svg" xmlns:xlink="http://www.w3.org/1999/xlink" x="0px" y="0px"
	 width="39.997px" height="33.002px" viewBox="0 0 39.997 33.002" enable-background="new 0 0 39.997 33.002" xml:space="preserve">
<path fill="#0D0F0F" d="M39.378,11.939c-0.002,0.001-3.842,2.554-3.844,2.555c-0.489,0.324-1.103,0.302-1.558-0.007l-2.489-1.496
	l0.003,2.797c-2.106-3.045-1.071-5.753-0.87-6.208c0,0,0.464-0.072,0.907,0.197V9.776l3.196,1.922c0,0,3.106-2.063,3.107-2.064
	c0.641-0.424,1.505-0.251,1.932,0.387C40.189,10.657,40.018,11.514,39.378,11.939z M27.949,8.182c-2.145,0-3.886-1.732-3.886-3.869
	c0-2.136,1.741-3.869,3.886-3.869c2.148,0,3.889,1.733,3.889,3.869C31.838,6.45,30.097,8.182,27.949,8.182z M24.293,9.576
	l0.886,0.001c0.184,0.426,1.233,3.182-0.89,6.239l0.001-2.217c0,0-1.357,1.925-1.358,1.926c0,0.001-0.001,0.001-0.001,0.002
	l-2.653,3.762h-0.001c0,0.001-0.001,0.001-0.001,0.002c-0.441,0.626-1.306,0.778-1.936,0.338c-0.63-0.44-0.785-1.304-0.343-1.93
	c0.001-0.001,0.001-0.001,0.001-0.001l-0.001-0.001l5.304-7.519c0.002-0.003,0.004-0.007,0.006-0.01
	c0.239-0.339,0.603-0.533,0.986-0.576V9.576z M14.725,20.579l-3.224,0.558l-1.534-8.829c0.615,0.553,1.864,1.29,4.234,1.492
	c0.371,1.537,0.913,3.276,1.256,4.595C15.875,20.004,14.725,20.579,14.725,20.579z M12.412,5.283
	c-0.366-0.291-0.772-0.472-1.186-0.557c-0.056,0.426-0.177,0.85-0.373,1.259C9.852,8.071,7.344,8.955,5.25,7.961
	C3.153,6.966,2.263,4.47,3.263,2.383C4.264,0.299,6.774-0.586,8.87,0.409c1.146,0.543,1.926,1.538,2.238,2.667
	c1.32-0.553,2.863-0.472,3.7,0.727c1.267,1.817-1.072,4.052-1.072,4.052C13.84,6.395,12.937,5.699,12.412,5.283z M3.553,10.782
	c-0.162,1.186-0.01,2.705,1.066,4.318l-2.254,0.883c0.574-2.577,1.048-4.711,1.064-4.783C3.458,11.056,3.502,10.918,3.553,10.782z
	 M13.983,12.817c0.035,0.178,0.076,0.365,0.118,0.554c-3.139-0.306-4.115-1.601-4.269-1.843l-0.213-1.225
	C11.725,9.796,13.647,11.09,13.983,12.817z M5.064,13.467c-0.632-1.301-0.769-2.787,0.172-4.362c0.31-0.114,0.645-0.177,0.994-0.177
	c1.471,0,2.681,1.105,2.841,2.525c0.01,0.032,0.598,3.438,1.186,6.847c-0.002-0.001-0.737-0.383-1.678-1.05
	c0.237-0.39,0.342-0.864,0.253-1.342l-0.559-4.073c-0.032-0.228-0.242-0.388-0.472-0.357c0.121,0.88,0.619,4.506,0.619,4.506
	c0.129,0.69-0.245,1.394-0.928,1.661c-0.001,0-0.002,0-0.003,0l0.001,0.002l-5.042,1.972c-0.776,0.302-1.646-0.074-1.952-0.844
	c-0.304-0.771,0.074-1.641,0.849-1.945l3.997-1.565C5.342,15.265,5.202,14.357,5.064,13.467z M1.453,20.08
	c0.146,0.035,0.296,0.058,0.448,0.058c0.233,0,0.47-0.042,0.7-0.132l5.042-1.972c0.004-0.002,0.007-0.004,0.011-0.005
	c0.796,0.544,1.731,1.084,2.834,1.609c0.506,2.93,0.952,5.522,0.952,5.522H9.714l2.02,4.991c0.404,0.997-0.081,2.131-1.084,2.533
	s-2.143-0.081-2.547-1.078l-2.245-5.547l-2.06,5.659c-0.368,1.011-1.49,1.534-2.506,1.167c-1.017-0.366-1.543-1.482-1.174-2.493
	l1.904-5.232h-1.7C0.322,25.16,0.84,22.834,1.453,20.08z M21.193,20.363l3.093-1.083l0.002-1.491
	c3.278-3.446,2.67-6.852,2.228-8.211l2.768,0.001c-0.441,1.357-1.045,4.747,2.204,8.183l-0.002,1.951l2.355,11.119
	c0.204,0.973-0.422,1.927-1.401,2.132c-0.979,0.204-1.937-0.42-2.142-1.393l-2.042-9.635h-0.933
	c-0.146,0.11-0.306,0.207-0.488,0.271l-2.309,0.808l1.296,2.065c0.53,0.844,0.273,1.954-0.576,2.481
	c-0.848,0.527-1.965,0.27-2.493-0.573l-2.494-3.972c0,0-0.128-0.228-0.173-0.355C19.754,21.723,20.25,20.694,21.193,20.363z"/>
</svg>
