<?xml version="1.0" encoding="utf-8"?>
<!-- Generator: Adobe Illustrator 17.0.1, SVG Export Plug-In . SVG Version: 6.00 Build 0)  -->
<!DOCTYPE svg PUBLIC "-//W3C//DTD SVG 1.1//EN" "http://www.w3.org/Graphics/SVG/1.1/DTD/svg11.dtd">
<svg version="1.1" id="Слой_1" xmlns="http://www.w3.org/2000/svg" xmlns:xlink="http://www.w3.org/1999/xlink" x="0px" y="0px"
	 width="26.009px" height="37.004px" viewBox="0 0 26.009 37.004" enable-background="new 0 0 26.009 37.004" xml:space="preserve">
<path fill="#0D0F0F" d="M17.198,7.358c-0.144,1.573-0.881,7.451-1.533,8.265c-0.395,0.494-0.973,0.746-1.697,0.991
	c-1.176,0.405-1.525,1.015-1.66,2.324l-1.221,15.739c0,1.027,0.824,2.327,1.834,2.327h11.253c1.011,0,1.835-1.3,1.835-2.327
	L22.55,7.358c0.388-0.144,2.04-0.791,2.66-1.205c0.456-0.305,0.411-0.437,0.382-0.933c-0.018-0.306-0.055-0.598-0.108-0.873
	c-0.585-3.063-3.898-3.237-6.903-3.245l-6.712-0.018v3.4C13.585,4.769,16.586,5.376,17.198,7.358L17.198,7.358z M16.492,7.226
	c-1.263,1.884-2.964,3.705-4.305,4.851l-1.407-0.826l3.219-5.67C15.014,5.915,15.99,6.423,16.492,7.226L16.492,7.226z M9.245,0.72
	h1.978c0,1.34,0,2.431,0,3.772H9.245V0.72L9.245,0.72z M21.102,11.446l1.381,10.902h-8.484l0.251-3.228
	c0.013-0.13,0.043-0.388,0.091-0.525c0.073-0.04,0.187-0.081,0.249-0.102c1.007-0.344,1.899-0.761,2.586-1.618
	c0.827-1.032,1.226-3.844,1.432-5.173l0.039-0.256H21.102L21.102,11.446z M8.21,3.328L1.32,5.505
	C1.065,5.582,0.797,5.433,0.722,5.174c-0.075-0.26,0.071-0.532,0.327-0.608l4.384-1.312h-4.95C0.216,3.254,0,3.034,0,2.763
	c0-0.271,0.216-0.491,0.483-0.491h5.142l-4.571-1.31C0.798,0.889,0.648,0.618,0.72,0.358c0.072-0.261,0.338-0.413,0.594-0.34
	l6.89,2.09C8.677,2.242,8.693,3.184,8.21,3.328z"/>
</svg>
