<?xml version="1.0" encoding="utf-8"?>
<!-- Generator: Adobe Illustrator 17.0.1, SVG Export Plug-In . SVG Version: 6.00 Build 0)  -->
<!DOCTYPE svg PUBLIC "-//W3C//DTD SVG 1.1//EN" "http://www.w3.org/Graphics/SVG/1.1/DTD/svg11.dtd">
<svg version="1.1" id="Слой_1" xmlns="http://www.w3.org/2000/svg" xmlns:xlink="http://www.w3.org/1999/xlink" x="0px" y="0px"
	 width="34.992px" height="35.006px" viewBox="0 0 34.992 35.006" enable-background="new 0 0 34.992 35.006" xml:space="preserve">
<path fill="#0D0F0F" d="M31.802,3.362V17.12l-1.651,1.097V3.362c0-0.994-0.868-1.81-1.926-1.81c-9.029,0-16.781,0-22.178,0
	c-1.057,0-1.925,0.817-1.925,1.81v1.505h0.826c0.24-0.281,0.454-0.462,1.022-0.462c0.567,0,1.307,0.551,1.307,1.229
	c0,0.679-0.74,1.229-1.307,1.229c-0.568,0-0.782-0.18-1.022-0.462H4.122v4.255h0.826c0.24-0.282,0.608-0.462,1.022-0.462
	c0.721,0,1.307,0.55,1.307,1.229c0,0.678-0.586,1.229-1.307,1.229c-0.414,0-0.782-0.181-1.022-0.462H4.122v4.546h0.826
	c0.24-0.281,0.608-0.461,1.022-0.461c0.721,0,1.307,0.55,1.307,1.228c0,0.679-0.586,1.229-1.307,1.229
	c-0.414,0-0.782-0.18-1.022-0.462H4.122v4.547h0.826c0.24-0.282,0.608-0.462,1.022-0.462c0.721,0,1.307,0.55,1.307,1.229
	c0,0.679-0.586,1.229-1.307,1.229c-0.414,0-0.782-0.181-1.022-0.462H4.122v4.254h0.826c0.24-0.281,0.454-0.461,1.022-0.461
	c0.567,0,1.307,0.55,1.307,1.228c0,0.679-0.74,1.229-1.307,1.229c-0.568,0-0.782-0.18-1.022-0.462H4.122v1.505
	c0,0.994,0.868,1.811,1.925,1.811c5.095,0,12.742,0,22.178,0c1.058,0,1.926-0.817,1.926-1.811v-6.29l1.651-1.097v7.387
	c0,1.85-1.609,3.362-3.577,3.362H6.047c-1.967,0-3.576-1.511-3.576-3.362v-1.505H0.815C0.365,30.139,0,29.795,0,29.372
	c0-0.423,0.365-0.767,0.815-0.767h1.656v-4.254H0.815C0.365,24.351,0,24.007,0,23.584c0-0.423,0.365-0.767,0.815-0.767h1.656V18.27
	H0.815C0.365,18.27,0,17.927,0,17.503c0-0.423,0.365-0.767,0.815-0.767h1.656V12.19H0.815C0.365,12.19,0,11.846,0,11.423
	c0-0.424,0.365-0.767,0.815-0.767h1.656V6.401H0.815C0.365,6.401,0,6.058,0,5.634c0-0.423,0.365-0.767,0.815-0.767h1.656V3.362
	C2.471,1.512,4.079,0,6.047,0h22.178C30.194,0,31.802,1.511,31.802,3.362L31.802,3.362z M17.247,28.574l-1.506,2.424
	c-0.065,0.105-0.03,0.248,0.05,0.355c0.081,0.107,0.21,0.182,0.34,0.163l2.918-0.547C19.001,30.099,18.172,28.904,17.247,28.574
	L17.247,28.574z M18.197,27.063c4.704-3.129,9.408-6.258,14.113-9.387c0.404,0.158,0.808,0.316,1.213,0.474
	c0.447,0.594,0.894,1.189,1.341,1.783c0.042,0.436,0.085,0.871,0.128,1.307c-4.705,3.129-9.409,6.258-14.114,9.387
	c0.355-0.581,0.383-1.043-0.127-1.308c0.052-0.967-0.511-1.475-1.342-1.782C19.294,27.058,18.987,26.825,18.197,27.063
	L18.197,27.063z M26.974,7.598c-0.314,0.454-0.522,0.758-0.673,0.978c0.238,0.167,0.599,0.421,1.273,0.885
	c0.27,0.234,0.314,0.6,0.101,0.819c-0.215,0.218-0.606,0.207-0.876-0.027c-0.566-0.386-0.911-0.618-1.15-0.781
	c-0.192,0.243-0.486,0.61-1.048,1.326c-0.302,0.148-0.637,0.05-0.75-0.221c-0.112-0.271,0.04-0.611,0.342-0.76
	c0.29-0.487,0.459-0.777,0.579-0.979c-0.254-0.195-0.633-0.49-1.325-1.02c-0.148-0.288-0.032-0.6,0.26-0.697
	c0.292-0.096,0.649,0.058,0.797,0.347c0.377,0.226,0.643,0.383,0.842,0.502c0.162-0.227,0.394-0.552,0.761-1.075
	c0.239-0.26,0.628-0.314,0.867-0.12C27.213,6.969,27.213,7.337,26.974,7.598L26.974,7.598z M9.164,8.68
	c0.502-0.728,0.818-0.999,1.129-1.37c0.556-0.664,0.884-1.063,1.16-0.962c0.365,0.134,0.464,0.687,0.496,1.803
	c0.046,1.579,0.279,3.71,0.286,4.298c-0.005,0.328-0.29,0.59-0.639,0.586c-0.348-0.004-0.627-0.273-0.622-0.6
	c-0.042-0.624-0.095-2.436-0.166-3.7l-0.457,0.437C10.207,9.48,9.825,9.62,9.497,9.484C9.169,9.348,9.02,8.988,9.164,8.68
	L9.164,8.68z M15.692,7.663c0.078,0.537,0.132,1.094,0.17,1.354c0.296-0.02,0.746-0.035,1.58-0.097
	c1.12,0.034,0.612,0.896-0.037,0.876c-0.697,0.055-1.12,0.076-1.414,0.1c0.023,0.302,0.055,0.761,0.127,1.648
	c-0.125,0.298-0.26,0.429-0.534,0.293c-0.38-0.189-0.4-1.378-0.511-1.882c-0.327,0.008-0.819,0.017-1.711,0.04
	c-0.312-0.127-0.441-0.235-0.287-0.488c0.222-0.365,1.3-0.289,1.831-0.363c-0.035-0.271-0.085-0.86-0.171-1.481
	C14.735,6.843,15.692,6.843,15.692,7.663L15.692,7.663z M19.077,6.32c3.08-0.073,3.672-0.409,2.799,0.7
	c-0.225,0.286-0.437,0.755-0.86,1.199c3.517,0.328,1.983,6.569-2.639,3.726c-0.252-0.227-0.261-0.602-0.02-0.838
	c0.241-0.237,0.64-0.245,0.892-0.019c1.197,0.804,2.191,0.561,2.547-0.063c0.481-0.842-0.087-2.273-1.82-1.766
	c-0.876,0.257-1.147-0.145-0.812-0.525c0.796-0.903,1.055-1.291,1.225-1.492c-0.467,0.014-0.935,0.031-1.312,0.034
	c-0.36,0-0.652-0.274-0.652-0.613S18.717,6.32,19.077,6.32L19.077,6.32z M16.793,19.894c2.633-0.195,1.258-0.058,4.124-0.432
	c0.283-0.178,0.351-0.502,0.152-0.724c-0.2-0.223-0.591-0.259-0.874-0.081c-2.251,0.025-1.037-0.024-3.645,0.186
	c-0.358,0.073-0.594,0.367-0.526,0.658C16.09,19.791,16.435,19.967,16.793,19.894L16.793,19.894z M11.616,15.092
	c1.727-0.666,4.044,0.346,1.429,3.897c2.297,2.118,1.266,3.686-0.626,3.998c-1.438,0.238-3.386-0.864-1.205-3.744
	C9.825,18.045,9.657,15.847,11.616,15.092L11.616,15.092z M12.244,19.688c-1.413,1.446-0.479,2.291-0.001,2.268
	C12.785,21.931,13.798,20.97,12.244,19.688L12.244,19.688z M12.076,18.379c1.562-1.79,0.669-2.759,0.008-2.52
	C11.023,16.243,11.283,17.645,12.076,18.379L12.076,18.379z M20.253,17.593c-2.695,0.244-1.287,0.151-4.227,0.262
	c-0.314-0.123-0.447-0.429-0.296-0.684c0.15-0.254,0.527-0.359,0.841-0.236c2.286-0.339,1.053-0.19,3.705-0.418
	c0.366,0.008,0.658,0.254,0.652,0.551C20.921,17.365,20.619,17.601,20.253,17.593L20.253,17.593z"/>
</svg>
