<?xml version="1.0" encoding="utf-8"?>
<!-- Generator: Adobe Illustrator 17.0.1, SVG Export Plug-In . SVG Version: 6.00 Build 0)  -->
<!DOCTYPE svg PUBLIC "-//W3C//DTD SVG 1.1//EN" "http://www.w3.org/Graphics/SVG/1.1/DTD/svg11.dtd">
<svg version="1.1" id="Слой_1" xmlns="http://www.w3.org/2000/svg" xmlns:xlink="http://www.w3.org/1999/xlink" x="0px" y="0px"
	 width="32.006px" height="31.997px" viewBox="0 0 32.006 31.997" enable-background="new 0 0 32.006 31.997" xml:space="preserve">
<path fill="#0D0F0F" d="M31.464,0.709l0.014-0.013c-0.027-0.029-0.061-0.051-0.09-0.077c-0.027-0.03-0.049-0.063-0.077-0.091
	l-0.013,0.014c-1.376-1.092-4.28-0.611-7.046,2.154l-5.915,5.913l-2.64-0.893l0.505-0.505c0.315-0.315,0.315-0.827,0-1.143
	l-0.406-0.405c-0.316-0.316-0.828-0.316-1.144-0.001l-1.271,1.271L11.72,6.372l0.814-0.814c0.315-0.315,0.316-0.827,0-1.143
	l-0.407-0.406c-0.315-0.316-0.827-0.316-1.143,0l-1.58,1.58L4.537,3.944c0,0-0.709-0.079-1.103,0.314
	c-0.394,0.394-1.97,1.969-1.97,1.969S1.071,6.778,1.661,7.133c0.485,0.29,8.515,5.054,11.39,6.76l-3.559,3.558
	c-0.894,0.939-2.325,2.683-3.568,4.508l-3.898-0.462c0,0-0.356-0.039-0.554,0.159c-0.198,0.198-1.407,1.406-1.407,1.406
	s-0.198,0.278,0.099,0.456c0.163,0.097,2.018,1.198,3.664,2.175c-0.411,1.059-0.506,1.923-0.059,2.369L3.741,28.09
	c0.028,0.028,0.06,0.05,0.092,0.074c0.024,0.032,0.047,0.065,0.075,0.093l0.027-0.028c0.395,0.395,1.247,0.271,2.314-0.155
	c0.99,1.668,2.133,3.593,2.233,3.759c0.178,0.297,0.456,0.099,0.456,0.099s1.208-1.208,1.406-1.406
	c0.198-0.199,0.158-0.555,0.158-0.555l-0.473-3.988c1.834-1.21,3.591-2.589,4.521-3.475l3.559-3.559
	c1.707,2.875,6.472,10.902,6.763,11.387c0.354,0.591,0.905,0.196,0.905,0.196s1.576-1.575,1.97-1.968
	c0.394-0.394,0.315-1.102,0.315-1.102l-1.646-4.867l1.58-1.579c0.316-0.316,0.316-0.827,0-1.144l-0.406-0.405
	c-0.316-0.316-0.828-0.316-1.143,0l-0.814,0.814l-0.562-1.661l1.272-1.271c0.315-0.316,0.315-0.827-0.001-1.143L25.936,15.8
	c-0.316-0.316-0.827-0.316-1.143,0l-0.505,0.505l-0.893-2.64l5.916-5.913C32.076,4.987,32.557,2.084,31.464,0.709z M14.99,6.031
	c0.131-0.131,0.343-0.131,0.473,0c0.131,0.13,0.131,0.342,0,0.472l-0.847,0.848l-0.707-0.239L14.99,6.031z M11.169,4.337
	c0.131-0.13,0.342-0.13,0.473,0c0.131,0.131,0.131,0.343,0,0.473l-1.147,1.147L9.788,5.719L11.169,4.337z M5.013,5.888
	C4.838,5.827,4.747,5.636,4.808,5.462C4.869,5.288,5.06,5.197,5.234,5.258l12.175,4.278l-0.524,0.525L5.013,5.888z M2.012,23.114
	c-0.182-0.028-0.307-0.198-0.279-0.381c0.028-0.182,0.199-0.307,0.381-0.279l3.166,0.487c-0.131,0.207-0.256,0.413-0.377,0.618
	L2.012,23.114z M9.504,30.352c-0.182,0.027-0.352-0.1-0.379-0.283l-0.471-3.223c0.206-0.122,0.413-0.247,0.62-0.377l0.512,3.504
	C9.813,30.156,9.686,30.326,9.504,30.352z M27.195,20.358c0.13-0.13,0.342-0.13,0.472,0c0.131,0.131,0.131,0.342,0,0.473
	l-1.381,1.381l-0.239-0.707L27.195,20.358z M25.501,16.538c0.13-0.13,0.342-0.13,0.473,0c0.13,0.131,0.13,0.342,0,0.473
	l-1.082,1.081l-0.238-0.706L25.501,16.538z M27.179,27.624c0.063,0.173-0.027,0.364-0.201,0.427
	c-0.174,0.063-0.365-0.027-0.427-0.201l-4.599-12.742l0.522-0.522L27.179,27.624z M23.958,5.194
	C19.594,9.597,10.341,18.808,10.34,18.809l-0.016,0.015l-0.004,0.003l-0.017,0.015l-0.071,0.068
	c-0.065,0.061-0.162,0.157-0.287,0.288c-0.25,0.263-0.615,0.671-1.062,1.243c-0.896,1.144-2.127,2.946-3.451,5.563
	c-0.083,0.165-0.284,0.231-0.449,0.148c-0.164-0.083-0.23-0.284-0.147-0.449c2.637-5.216,4.927-7.276,5.04-7.375
	c0.017-0.017,0.154-0.153,0.399-0.397c0.261-0.261,0.64-0.638,1.107-1.104c0.936-0.932,2.229-2.221,3.659-3.648
	c2.859-2.853,6.262-6.255,8.443-8.455c1.562-1.576,2.83-2.469,3.815-2.971c0.984-0.501,1.687-0.61,2.102-0.61
	c0.256,0,0.401,0.041,0.432,0.051c0.177,0.057,0.274,0.245,0.217,0.421c-0.055,0.173-0.239,0.268-0.413,0.217v0.001l-0.004-0.001
	l-0.036-0.007c-0.038-0.006-0.103-0.013-0.196-0.013c-0.3,0-0.893,0.075-1.799,0.536C26.697,2.809,25.483,3.657,23.958,5.194z"/>
</svg>
