<?xml version="1.0" encoding="utf-8"?>
<!-- Generator: Adobe Illustrator 17.0.1, SVG Export Plug-In . SVG Version: 6.00 Build 0)  -->
<!DOCTYPE svg PUBLIC "-//W3C//DTD SVG 1.1//EN" "http://www.w3.org/Graphics/SVG/1.1/DTD/svg11.dtd">
<svg version="1.1" id="Слой_1" xmlns="http://www.w3.org/2000/svg" xmlns:xlink="http://www.w3.org/1999/xlink" x="0px" y="0px"
	 width="49.89px" height="55.97px" viewBox="0 0 49.89 55.97" enable-background="new 0 0 49.89 55.97" xml:space="preserve">
<path fill="#291D11" d="M49.89,46.46v6.86c0,0.935-1.715,2.65-2.65,2.65H2.806c-0.935,0-2.65-1.715-2.65-2.65v-6.86
	C16.682,46.46,33.208,46.46,49.89,46.46L49.89,46.46z"/>
<path fill="#291D11" d="M0,12.628v32.272c16.682,0,33.208,0,49.89,0V12.628H0z M41.159,36.794c0,1.091-0.935,1.871-1.871,1.871
	H10.602c-1.091,0-1.871-0.935-1.871-1.871V20.58c0-1.091,0.935-1.871,1.871-1.871h28.531c1.091,0,1.871,0.935,1.871,1.871v16.214
	H41.159z"/>
<path fill="#291D11" d="M47.239,0H2.806c-0.935,0-2.65,1.715-2.65,2.65v8.263h49.89V2.65C49.89,1.715,48.175,0,47.239,0z
	 M9.666,7.639c-1.091,0-2.027-0.935-2.027-2.027c0-1.091,0.935-2.027,2.027-2.027s2.027,0.935,2.027,2.027
	C11.693,6.704,10.757,7.639,9.666,7.639z M21.203,7.639c-1.091,0-2.027-0.935-2.027-2.027c0-1.091,0.935-2.027,2.027-2.027
	s2.027,0.935,2.027,2.027C23.23,6.704,22.294,7.639,21.203,7.639z M27.595,7.639c-1.091,0-2.027-0.935-2.027-2.027
	c0-1.091,0.935-2.027,2.027-2.027s2.027,0.935,2.027,2.027C29.466,6.704,28.687,7.639,27.595,7.639z M33.832,7.639
	c-1.091,0-2.027-0.935-2.027-2.027c0-1.091,0.935-2.027,2.027-2.027s2.027,0.935,2.027,2.027
	C35.858,6.704,34.923,7.639,33.832,7.639z M40.224,7.639c-1.091,0-2.027-0.935-2.027-2.027c0-1.091,0.935-2.027,2.027-2.027
	s2.027,0.935,2.027,2.027C42.25,6.704,41.315,7.639,40.224,7.639z"/>
</svg>
