<?xml version="1.0" encoding="utf-8"?>
<!-- Generator: Adobe Illustrator 17.0.1, SVG Export Plug-In . SVG Version: 6.00 Build 0)  -->
<!DOCTYPE svg PUBLIC "-//W3C//DTD SVG 1.1//EN" "http://www.w3.org/Graphics/SVG/1.1/DTD/svg11.dtd">
<svg version="1.1" id="Слой_1" xmlns="http://www.w3.org/2000/svg" xmlns:xlink="http://www.w3.org/1999/xlink" x="0px" y="0px"
	 width="39.996px" height="33.994px" viewBox="0 0 39.996 33.994" enable-background="new 0 0 39.996 33.994" xml:space="preserve">
<path fill="#0D0F0F" d="M38.49,3.02H1.506C0.674,3.02,0,2.345,0,1.51C0,0.676,0.674,0,1.506,0H38.49c0.832,0,1.506,0.676,1.506,1.51
	C39.996,2.345,39.322,3.02,38.49,3.02z M12.594,20.574H2.568V4.749h10.026V20.574z M24.358,4.749v15.825H14.317V4.749H24.358z
	 M37.427,20.574H26.082v-4.226h11.345V20.574z M26.082,4.749h11.345v4.242H26.082V4.749z M37.427,14.62H26.082v-3.901h11.345V14.62z
	 M37.427,32.171c0,1.381-1.816,2.491-2.519,1.35c-0.425-0.734-0.851-1.469-1.277-2.203c-0.623-1.074-1.251-1.811-2.61-1.811H19.998
	H8.975c-1.359,0-1.986,0.737-2.61,1.811c-0.426,0.734-0.852,1.469-1.277,2.203c-0.703,1.141-2.52,0.031-2.52-1.35v-9.869h34.859
	V32.171z"/>
</svg>
