<?xml version="1.0" encoding="utf-8"?>
<!-- Generator: Adobe Illustrator 17.0.1, SVG Export Plug-In . SVG Version: 6.00 Build 0)  -->
<!DOCTYPE svg PUBLIC "-//W3C//DTD SVG 1.1//EN" "http://www.w3.org/Graphics/SVG/1.1/DTD/svg11.dtd">
<svg version="1.1" id="Слой_1" xmlns="http://www.w3.org/2000/svg" xmlns:xlink="http://www.w3.org/1999/xlink" x="0px" y="0px"
	 width="40.013px" height="35.009px" viewBox="0 0 40.013 35.009" enable-background="new 0 0 40.013 35.009" xml:space="preserve">
<path fill="#0D0F0F" d="M39.541,22.02c-0.054,1.008-0.339,1.591-1.201,1.853l-0.717,0.218L36.924,34.35
	c-0.046,0.398-0.316,0.659-0.716,0.659h-5.46c-0.401,0-0.67-0.261-0.716-0.659l-0.356-5.229l-0.95-13.936
	c-0.073-0.986-0.09-1.24-0.847-1.508l-7.509-2.611c-0.798-0.244-0.35-2.381,0.515-2.327l10.196,0.697l4.574,0.331
	c0.494,0.083,0.992,0.203,1.466,0.364c1.737,0.588,2.97,1.661,2.888,3.191L39.541,22.02z M36.973,4.151
	c-0.058,1.017-0.255,2.277-0.577,2.86c-0.399,0.725-1.328,1.421-2.357,1.659c-0.499,0.074-0.623,0.074-1.122,0
	c-1.029-0.238-1.959-0.934-2.357-1.659c-0.334-0.605-0.534-1.938-0.584-2.973h4.131c-0.19-0.16-0.358-0.348-0.474-0.568h-3.668
	c0.001-0.15,0.007-0.285,0.018-0.401c0.165-1.772,1.739-2.658,3.495-2.658c0.25,0,0.497,0.018,0.736,0.054
	c0.914-0.691,2.218-0.603,3.031,0.205c0.896,0.893,0.896,2.358,0,3.25C37.16,4.004,37.07,4.081,36.973,4.151z M35.612,0.732
	c-0.868,0-1.572,0.7-1.572,1.563s0.704,1.563,1.572,1.563c0.867,0,1.57-0.7,1.57-1.563S36.479,0.732,35.612,0.732z M35.612,2.87
	c-0.32,0-0.578-0.257-0.578-0.575c0-0.317,0.258-0.575,0.578-0.575c0.319,0,0.577,0.258,0.577,0.575
	C36.189,2.613,35.931,2.87,35.612,2.87z M27.161,19.443c0,4.825-4.447,9.651-10.599,14.476c-2.141,1.428-3.822,1.478-5.964,0
	c-3.833-3.007-7.004-6.013-8.849-9.02h5.733l1.487,3.183l2.528-4.621c0.943,2.008,2.135,4.54,2.68,5.706l2.616-4.529h1.745
	c0.338,0.757,1.099,1.284,1.984,1.284c1.197,0,2.169-0.966,2.169-2.158c0-1.192-0.972-2.158-2.169-2.158
	c-0.885,0-1.646,0.528-1.984,1.284h-2.77l-1.431,2.463l-2.838-6.037C10.653,20.9,9.86,22.47,9.037,24.07l-0.43-0.92H0.83
	C0.292,21.914,0,20.678,0,19.443c0-5.418,7.941-8.081,12.869-2.769c0.704,0.661,0.718,0.611,1.422,0
	C19.219,11.362,27.161,14.025,27.161,19.443z"/>
</svg>
