<?xml version="1.0" encoding="utf-8"?>
<!-- Generator: Adobe Illustrator 17.0.1, SVG Export Plug-In . SVG Version: 6.00 Build 0)  -->
<!DOCTYPE svg PUBLIC "-//W3C//DTD SVG 1.1//EN" "http://www.w3.org/Graphics/SVG/1.1/DTD/svg11.dtd">
<svg version="1.1" id="Слой_1" xmlns="http://www.w3.org/2000/svg" xmlns:xlink="http://www.w3.org/1999/xlink" x="0px" y="0px"
	 width="37.004px" height="40px" viewBox="0 0 37.004 40" enable-background="new 0 0 37.004 40" xml:space="preserve">
<path fill="#0D0F0F" d="M35.748,18.973c-0.656,0.793-1.461,1.322-2.223,1.681c-0.615,0.287-1.205,0.469-1.697,0.586
	c0.057,1.79,0.583,5.66,1.647,7.659c0.054,0.148-0.776,0.533-1.955,0.969c0.241,0.595,0.636,1.2,1.287,1.608
	c0.501,0.313,1.182,0.552,2.23,0.555c0.082,0,0.168-0.002,0.257-0.005c0.702-0.025,1.292,0.528,1.317,1.235
	c0.026,0.707-0.524,1.301-1.227,1.326c-0.117,0.004-0.232,0.006-0.347,0.006c-0.006,0-0.011,0-0.017,0
	c-1.442,0-2.642-0.361-3.566-0.946c-0.93-0.585-1.558-1.37-1.966-2.119c-0.157-0.292-0.285-0.578-0.388-0.852
	c-0.399,0.121-0.8,0.237-1.191,0.344c0.27,1.736,0.937,4.076,2.528,6.345c0.404,0.579,0.266,1.378-0.31,1.785
	c-0.223,0.157-0.478,0.233-0.731,0.233c-0.401,0-0.796-0.19-1.044-0.545c-1.821-2.612-2.605-5.253-2.935-7.265
	c-0.632,0.086-1.054,0.069-1.117-0.106c-0.832-2.149-0.394-5.786,0.248-8.281c0.244-1.079,0.604-2.018,0.931-2.742
	c-0.146-0.041-0.3-0.091-0.459-0.15c-0.95-0.351-2.124-1.096-2.878-2.516c-0.502-0.942-0.808-2.151-0.807-3.661
	c0-0.695,0.064-1.455,0.202-2.29c0.089-0.537,0.594-0.899,1.127-0.81c0.534,0.089,0.895,0.597,0.806,1.133
	c-0.122,0.741-0.175,1.394-0.175,1.967c0.016,2.188,0.713,3.181,1.437,3.781c0.731,0.596,1.623,0.754,1.981,0.783
	c0.1,0.009,0.147,0.008,0.147,0.008c0.032,0,0.06,0.002,0.085,0.004c0.045,0.004,0.088,0.015,0.131,0.024
	c0.474-0.018,1.185,0.045,2.21,0.335c0.507,0.144,0.918,0.285,1.251,0.418c0.067-0.007,0.161-0.019,0.279-0.037
	c0.259-0.04,0.627-0.113,1.033-0.239c0.819-0.25,1.768-0.717,2.391-1.48c0.418-0.512,0.724-1.149,0.809-2.068
	c0.048-0.542,0.523-0.942,1.062-0.894C36.65,14.8,37.048,15.278,37,15.821C36.889,17.119,36.405,18.182,35.748,18.973z
	 M28.598,18.085c-1.731,0-3.135-1.412-3.135-3.153c0-1.742,1.404-3.154,3.135-3.154c1.732,0,3.135,1.412,3.135,3.154
	C31.733,16.673,30.33,18.085,28.598,18.085z M16.07,9.854c-2.706,0-4.899-2.206-4.899-4.927S13.364,0,16.07,0
	c2.705,0,4.898,2.206,4.898,4.927S18.775,9.854,16.07,9.854z M14.717,0.811c-1.088,0.363-1.985,1.15-2.496,2.167l1.924-0.018
	c0.029-0.451,0.316-0.834,0.719-1.004L14.717,0.811z M15.82,4.108c-0.149,0.065-0.313,0.102-0.486,0.102
	c-0.24,0-0.463-0.071-0.651-0.191c-0.355,0.319-1.784,1.71-1.993,3.595c0.791,1.003,2.011,1.649,3.38,1.649
	c0.565,0,1.105-0.111,1.6-0.311C16.788,7.504,16.091,5.116,15.82,4.108z M17.72,0.922c-0.531,0.348-1.259,1.06-1.513,1.314
	c0.164,0.173,0.275,0.395,0.309,0.641c0.79,0.211,2.937,0.861,3.861,1.907C20.321,3.042,19.239,1.557,17.72,0.922z M8.433,19.451
	c-1.865,0.33-3.643-0.923-3.971-2.799s0.919-3.664,2.784-3.994c1.865-0.33,3.643,0.923,3.971,2.799S10.299,19.121,8.433,19.451z
	 M5.504,20.467c1.306,0.198,2.612,0.397,3.918,0.596c0.108-0.033,0.262-0.085,0.451-0.162c0.409-0.167,0.975-0.449,1.563-0.901
	c1.174-0.911,2.453-2.444,2.881-5.273c0.079-0.538,0.578-0.91,1.113-0.829c0.535,0.079,0.904,0.581,0.825,1.119
	c-0.485,3.335-2.119,5.403-3.631,6.55c-0.826,0.632-1.606,1.005-2.16,1.218c0.041,1.914,0.412,3.819,1.084,5.61
	c0.272,0.287,0.578,0.651,0.883,1.102c0.85,1.247,1.672,3.181,1.667,5.765c0,1.074-0.139,2.256-0.46,3.544
	C13.46,39.522,12.821,40,12.119,40c-0.126,0-0.254-0.015-0.382-0.048c-0.84-0.211-1.35-1.067-1.14-1.912
	c0.263-1.057,0.366-1.977,0.366-2.778c-0.004-1.801-0.509-3.014-1.021-3.834c-0.19-0.302-0.384-0.548-0.554-0.739
	c-0.158,0.086-0.315,0.173-0.473,0.259c0,0.009,0.001,0.017,0.001,0.026c-0.003,0.604-0.053,1.328-0.293,2.093
	c-0.235,0.753-0.703,1.612-1.594,2.177c-0.581,0.37-1.299,0.563-2.042,0.563c-0.007,0-0.014,0-0.021,0
	c-1.07-0.005-2.202-0.339-3.534-0.995c-0.777-0.385-1.097-1.33-0.714-2.111C1.1,31.92,2.04,31.598,2.816,31.983
	c1.06,0.528,1.783,0.675,2.15,0.67c0.264-0.003,0.343-0.051,0.395-0.079c0.048-0.033,0.1-0.078,0.173-0.212
	c0.149-0.257,0.255-0.861,0.246-1.388c0-0.248-0.016-0.476-0.033-0.648c-0.915-2.64-1.388-5.434-1.391-8.23
	c-0.469-0.243-1.188-0.68-1.922-1.377C1.227,19.581-0.007,17.664,0,14.924c0-0.651,0.068-1.347,0.217-2.086
	c0.107-0.534,0.623-0.879,1.154-0.771c0.53,0.108,0.873,0.627,0.766,1.161c-0.124,0.618-0.178,1.182-0.178,1.696
	c0.008,2.075,0.847,3.386,1.737,4.28C4.451,19.955,5.25,20.353,5.504,20.467z"/>
</svg>
