<?xml version="1.0" encoding="utf-8"?>
<!-- Generator: Adobe Illustrator 17.0.1, SVG Export Plug-In . SVG Version: 6.00 Build 0)  -->
<!DOCTYPE svg PUBLIC "-//W3C//DTD SVG 1.1//EN" "http://www.w3.org/Graphics/SVG/1.1/DTD/svg11.dtd">
<svg version="1.1" id="Слой_1" xmlns="http://www.w3.org/2000/svg" xmlns:xlink="http://www.w3.org/1999/xlink" x="0px" y="0px"
	 width="24.996px" height="39.998px" viewBox="0 0 24.996 39.998" enable-background="new 0 0 24.996 39.998" xml:space="preserve">
<path fill="#0D0F0F" d="M3.172,12.313h13.262v1.618H3.172V12.313L3.172,12.313z M3.172,9.312h13.262v1.619H3.172V9.312L3.172,9.312z
	 M10.511,6.312h5.923V7.93h-5.923V6.312L10.511,6.312z M10.511,3.311h5.923v1.618h-5.923V3.311L10.511,3.311z M3.172,3.311h5.943
	V7.93H3.172V3.311L3.172,3.311z M3.172,15.314h13.262v1.618H3.172V15.314L3.172,15.314z M18.025,1.568H1.582v17.839h3.623v3.591
	h8.062c0.012,0.163,0.024,0.327,0.031,0.49l0.05,1.078H3.942L0,20.472V0h19.606v24.566h-1.414c-0.157-0.517-0.285-1.047-0.423-1.568
	h0.256V1.568L18.025,1.568z M14.464,39.998v-4.692c0-0.397,0.328-0.722,0.729-0.722h8.053c0.4,0,0.728,0.326,0.728,0.722v4.692
	H14.464L14.464,39.998z M21.679,22.281c0.045-0.106,0.045-0.163-0.056-0.225c-0.243-0.147-0.958-0.689-1.235-1.144l0.006-3.028
	c0.88,0.662,1.868,1.605,2.747,2.367c0.528,0.39,0.639,0.715,0.789,1.037c0.27,0.947,0.554,1.861,0.761,2.822
	c0.04,0.187,0.095,0.371,0.148,0.556c0.152,0.53,0.221,0.851,0.083,1.47c-0.07,0.315-0.249,0.617-0.387,1.016l-1.517,3.891
	c-0.421,1.077-0.655,1.724-0.711,2.752h-6.186c-0.041-0.318-0.097-0.608-0.171-0.857c-0.423-1.418-0.971-2.899-1.431-4.322
	c-0.249-0.638-0.25-1.627-0.302-2.379l-0.129-2.784c-0.049-1.061-0.356-2.679,1.131-2.779c1.379-0.095,1.631,1.232,1.697,2.199
	c0.224,0.802,0.429,1.721,0.709,2.494c0.112,0.307,0.189,0.553,0.487,0.568c0.672,0.033,1.983-0.057,2.45-0.601
	c0.292-0.34,0.479-0.766,0.642-1.137c0.118-0.269,0.168-0.328,0.2-0.621C21.444,23.208,21.455,22.762,21.679,22.281L21.679,22.281z"
	/>
</svg>
