<?xml version="1.0" encoding="utf-8"?>
<!-- Generator: Adobe Illustrator 17.0.1, SVG Export Plug-In . SVG Version: 6.00 Build 0)  -->
<!DOCTYPE svg PUBLIC "-//W3C//DTD SVG 1.1//EN" "http://www.w3.org/Graphics/SVG/1.1/DTD/svg11.dtd">
<svg version="1.1" id="Слой_1" xmlns="http://www.w3.org/2000/svg" xmlns:xlink="http://www.w3.org/1999/xlink" x="0px" y="0px"
	 width="39.998px" height="36.001px" viewBox="0 0 39.998 36.001" enable-background="new 0 0 39.998 36.001" xml:space="preserve">
<path fill="#0D0F0F" d="M0.66,4.007h6.104v3.539c0,1.597,1.309,2.893,2.923,2.893s2.923-1.296,2.923-2.893V4.007h10.203v3.539
	c0,1.597,1.309,2.893,2.923,2.893c1.613,0,2.922-1.296,2.922-2.893V4.007h6.105c0.363,0,0.66,0.294,0.66,0.653v12.893
	c-0.665-0.325-1.36-0.577-2.074-0.755v-4.299c0-0.204-0.17-0.373-0.377-0.373H2.451c-0.207,0-0.377,0.168-0.377,0.373v17.394
	c0,0.205,0.171,0.373,0.377,0.373h18.4c0.252,0.724,0.582,1.412,0.981,2.053H0.66c-0.363,0-0.66-0.294-0.66-0.653V4.66
	C0,4.301,0.297,4.007,0.66,4.007L0.66,4.007z M23.85,1.867C23.85,0.836,24.694,0,25.736,0c1.041,0,1.885,0.836,1.885,1.867v5.679
	c0,1.03-0.844,1.866-1.885,1.866c-1.042,0-1.886-0.836-1.886-1.866V1.867L23.85,1.867z M7.801,1.867C7.801,0.836,8.646,0,9.687,0
	s1.886,0.836,1.886,1.867v5.679c0,1.03-0.845,1.866-1.886,1.866S7.801,8.576,7.801,7.546V1.867L7.801,1.867z M13.006,14.043h3.955
	v3.915h-3.955V14.043L13.006,14.043z M18.461,14.043h3.956v3.915h-3.956V14.043L18.461,14.043z M23.917,14.043h3.956v2.846
	c-0.88,0.251-1.713,0.613-2.482,1.069h-1.474V14.043L23.917,14.043z M7.55,19.375h3.955v3.916H7.55V19.375L7.55,19.375z
	 M13.006,19.375h3.955v3.916h-3.955V19.375L13.006,19.375z M18.461,19.375h3.956v1.221c-0.624,0.813-1.131,1.719-1.493,2.695h-2.463
	V19.375L18.461,19.375z M7.55,24.708h3.955v3.915H7.55V24.708L7.55,24.708z M13.006,24.708h3.955v3.915h-3.955V24.708L13.006,24.708
	z M18.461,24.708h2.05c-0.151,0.7-0.231,1.427-0.231,2.172c0,0.594,0.051,1.176,0.148,1.743h-1.967V24.708L18.461,24.708z
	 M30.782,28.227l-1.17-2.007h-3.536l2.939,5.037h3.535c2.441-4.184,4.882-8.369,7.323-12.554h-3.536
	C34.486,21.877,32.634,25.052,30.782,28.227L30.782,28.227z M30.782,17.759c1.622,0,3.146,0.415,4.47,1.143l-1.337,2.291
	c-0.93-0.503-1.998-0.789-3.133-0.789c-3.613,0-6.543,2.899-6.543,6.476s2.93,6.476,6.543,6.476c3.614,0,6.543-2.899,6.543-6.476
	c0-0.602-0.083-1.184-0.238-1.737l1.662-2.85c0.794,1.348,1.249,2.915,1.249,4.587c0,5.037-4.126,9.121-9.216,9.121
	c-5.089,0-9.215-4.084-9.215-9.121C21.567,21.843,25.693,17.759,30.782,17.759L30.782,17.759z"/>
</svg>
