<?xml version="1.0" encoding="utf-8"?>
<!-- Generator: Adobe Illustrator 17.0.1, SVG Export Plug-In . SVG Version: 6.00 Build 0)  -->
<!DOCTYPE svg PUBLIC "-//W3C//DTD SVG 1.1//EN" "http://www.w3.org/Graphics/SVG/1.1/DTD/svg11.dtd">
<svg version="1.1" id="Слой_1" xmlns="http://www.w3.org/2000/svg" xmlns:xlink="http://www.w3.org/1999/xlink" x="0px" y="0px"
	 width="35.746px" height="32.003px" viewBox="0 0 35.746 32.003" enable-background="new 0 0 35.746 32.003" xml:space="preserve">
<path fill="#0D0F0F" d="M33.098,7.707c-0.985,0.536-4.256,2.262-7.267,3.837l-5.456,2.853c-0.247,0.129-0.512,0.191-0.773,0.191
	c-0.08,0-0.157-0.02-0.236-0.032c-0.099,0.009-0.194,0.031-0.296,0.031H3.879c-0.307,0-0.566,0.244-0.566,0.533
	s0.259,0.533,0.566,0.533h16.808c-0.025-0.002,0.054-0.025,0.088-0.04l12.523-6.728c0.805-0.433,1.81-0.137,2.247,0.659
	c0.436,0.795,0.138,1.79-0.666,2.222l-12.545,6.739c-0.476,0.255-1.138,0.426-1.647,0.426H3.879C1.74,18.931,0,17.221,0,15.12
	c0-2.101,1.74-3.811,3.879-3.811H19.07c0.186,0,0.394-0.228,0.394-0.533c0-0.313-0.218-0.532-0.414-0.532H1.656
	c-0.025,0-0.049-0.006-0.074-0.007c-0.059-0.003-0.117-0.009-0.176-0.018c-0.051-0.008-0.102-0.017-0.152-0.03
	c-0.052-0.012-0.103-0.028-0.153-0.047c-0.05-0.017-0.1-0.037-0.149-0.059c-0.048-0.022-0.095-0.048-0.141-0.076
	c-0.044-0.026-0.088-0.053-0.13-0.083C0.637,9.892,0.595,9.856,0.553,9.82C0.515,9.786,0.477,9.75,0.442,9.712
	C0.406,9.674,0.372,9.633,0.34,9.59C0.306,9.545,0.273,9.499,0.243,9.45C0.23,9.428,0.213,9.41,0.2,9.387
	C0.188,9.364,0.182,9.34,0.171,9.317C0.145,9.265,0.123,9.212,0.103,9.158C0.085,9.107,0.069,9.057,0.056,9.005
	C0.043,8.956,0.033,8.906,0.025,8.856c-0.009-0.06-0.015-0.12-0.018-0.18C0.006,8.652,0,8.629,0,8.605
	c0-0.024,0.006-0.047,0.007-0.071c0.003-0.06,0.009-0.119,0.018-0.177c0.008-0.05,0.017-0.1,0.03-0.149
	c0.013-0.052,0.029-0.103,0.048-0.154c0.018-0.049,0.036-0.098,0.059-0.145C0.185,7.86,0.211,7.815,0.239,7.768
	C0.265,7.725,0.293,7.681,0.323,7.64c0.033-0.044,0.068-0.085,0.106-0.126c0.034-0.038,0.07-0.075,0.108-0.11
	c0.039-0.036,0.08-0.069,0.124-0.101c0.045-0.034,0.092-0.066,0.142-0.096c0.022-0.013,0.04-0.03,0.063-0.042l11.463-6.158
	C13.398,0.433,15.178,0,16.471,0h15.547c2.055,0,3.727,1.556,3.727,3.469C35.745,5.065,34.607,6.887,33.098,7.707z M19.05,23.316
	H1.656c-0.029,0-0.057-0.007-0.086-0.009c-0.05-0.003-0.1-0.008-0.15-0.014c-0.059-0.009-0.118-0.02-0.176-0.035
	c-0.045-0.011-0.087-0.025-0.13-0.04C1.056,23.199,1,23.176,0.945,23.151c-0.043-0.02-0.084-0.043-0.125-0.066
	c-0.049-0.029-0.097-0.06-0.143-0.093c-0.042-0.03-0.08-0.063-0.119-0.096c-0.041-0.037-0.08-0.074-0.118-0.114
	c-0.035-0.038-0.067-0.078-0.099-0.119c-0.034-0.045-0.067-0.092-0.097-0.142C0.231,22.5,0.213,22.482,0.201,22.46
	c-0.013-0.023-0.019-0.047-0.03-0.071c-0.026-0.052-0.048-0.105-0.068-0.159c-0.018-0.05-0.034-0.101-0.047-0.152
	c-0.013-0.05-0.023-0.101-0.031-0.151c-0.009-0.059-0.015-0.119-0.018-0.178C0.006,21.724,0,21.702,0,21.677
	c0-0.025,0.006-0.047,0.007-0.072c0.003-0.059,0.009-0.118,0.018-0.176c0.008-0.05,0.017-0.101,0.03-0.149
	c0.013-0.052,0.029-0.103,0.047-0.153c0.018-0.049,0.037-0.099,0.06-0.147c0.023-0.048,0.049-0.093,0.076-0.138
	c0.027-0.045,0.055-0.089,0.086-0.131c0.032-0.043,0.067-0.084,0.103-0.124c0.035-0.039,0.072-0.077,0.111-0.113
	c0.038-0.035,0.079-0.067,0.121-0.098c0.046-0.036,0.094-0.068,0.144-0.098c0.022-0.013,0.04-0.03,0.062-0.042l1.217-0.653
	c0.557,0.218,1.161,0.347,1.797,0.347h3.456h13.352c0.675,0,1.512-0.216,2.131-0.548l6.723-3.612l4.229-2.271
	c1.169,0.585,1.975,1.722,1.975,3.042c0,1.595-1.137,3.417-2.646,4.237c-0.986,0.537-4.257,2.264-7.268,3.838l-5.456,2.853
	c-0.247,0.129-0.512,0.191-0.773,0.191c-0.079,0-0.156-0.02-0.234-0.032c-0.1,0.009-0.196,0.032-0.298,0.032H3.879
	c-0.307,0-0.566,0.243-0.566,0.532s0.259,0.532,0.566,0.532h16.808c-0.025-0.001,0.054-0.023,0.087-0.038l12.524-6.729
	c0.805-0.431,1.81-0.137,2.247,0.659c0.436,0.795,0.138,1.79-0.666,2.222l-12.543,6.738c-0.475,0.256-1.138,0.427-1.649,0.427H3.879
	C1.74,32.003,0,30.294,0,28.192s1.74-3.811,3.879-3.811H19.07c0.186,0,0.394-0.227,0.394-0.533
	C19.464,23.534,19.246,23.316,19.05,23.316z"/>
</svg>
