<?xml version="1.0" encoding="utf-8"?>
<!-- Generator: Adobe Illustrator 17.0.1, SVG Export Plug-In . SVG Version: 6.00 Build 0)  -->
<!DOCTYPE svg PUBLIC "-//W3C//DTD SVG 1.1//EN" "http://www.w3.org/Graphics/SVG/1.1/DTD/svg11.dtd">
<svg version="1.1" id="Слой_1" xmlns="http://www.w3.org/2000/svg" xmlns:xlink="http://www.w3.org/1999/xlink" x="0px" y="0px"
	 width="36.002px" height="27px" viewBox="0 0 36.002 27" enable-background="new 0 0 36.002 27" xml:space="preserve">
<path fill="#0D0F0F" d="M34.26,9.354c1.008-0.066,1.788-0.683,1.74-1.378c-0.047-0.694-0.904-1.203-1.912-1.136
	c-1.009,0.067-1.788,0.684-1.741,1.378c0.008,0.119,0.042,0.233,0.095,0.34l-0.168,0.149c-0.176-0.187-0.349-0.336-0.516-0.426
	c-0.583-1.605-3.614-7.421-3.614-7.421s-0.262-0.459-1.253-0.459c0,0-4.926-0.401-8.89-0.401s-8.89,0.401-8.89,0.401
	c-0.991,0-1.254,0.459-1.254,0.459s-3.03,5.816-3.613,7.421c-0.167,0.09-0.34,0.239-0.516,0.426L3.56,8.558
	c0.053-0.107,0.087-0.221,0.095-0.34C3.702,7.524,2.923,6.907,1.914,6.84C0.906,6.773,0.049,7.282,0.002,7.976
	c-0.048,0.695,0.732,1.312,1.74,1.378c0.185,0.012,0.364,0.005,0.534-0.019l0.335,0.951c-0.536,0.913-0.932,1.777-0.932,1.777
	s0.093,5.67,1.098,8.213c-0.007,0.053-0.012,0.107-0.012,0.162v5.302c0,0.693,0.577,1.26,1.282,1.26h2.394
	c0.705,0,1.282-0.567,1.282-1.26v-3.291c4.38,0.637,10.278,0.789,10.278,0.789s5.898-0.152,10.278-0.789v3.291
	c0,0.693,0.577,1.26,1.282,1.26h2.394c0.705,0,1.282-0.567,1.282-1.26v-5.302c0-0.055-0.005-0.109-0.012-0.162
	c1.005-2.543,1.098-8.213,1.098-8.213s-0.396-0.864-0.932-1.777l0.335-0.951C33.896,9.359,34.075,9.366,34.26,9.354z M5.98,7.855
	l1.627-4.196c0.359-0.925,1.476-1.682,2.483-1.682h15.683c1.007,0,2.124,0.757,2.483,1.682l1.627,4.196
	c0.359,0.925-0.171,1.682-1.178,1.682H7.158C6.151,9.537,5.621,8.78,5.98,7.855z M23.637,16.077c0.202,0,0.366,0.121,0.366,0.27
	c0,0.148-0.164,0.27-0.366,0.27H11.798c-0.201,0-0.366-0.122-0.366-0.27c0-0.149,0.165-0.27,0.366-0.27H23.637z M12.225,15.267
	c0-0.149,0.165-0.27,0.367-0.27h10.252c0.201,0,0.366,0.121,0.366,0.27c0,0.148-0.165,0.27-0.366,0.27H12.592
	C12.39,15.537,12.225,15.415,12.225,15.267z M6.345,16.737c-1.213,0-2.197-1.021-2.197-2.28c0-1.26,0.984-2.28,2.197-2.28
	c1.214,0,2.197,1.02,2.197,2.28C8.542,15.716,7.559,16.737,6.345,16.737z M24.552,17.697H10.883c-0.201,0-0.366-0.122-0.366-0.27
	c0-0.149,0.165-0.27,0.366-0.27h13.669c0.202,0,0.367,0.121,0.367,0.27C24.919,17.575,24.754,17.697,24.552,17.697z M29.657,16.737
	c-1.214,0-2.197-1.021-2.197-2.28c0-1.26,0.983-2.28,2.197-2.28c1.213,0,2.197,1.02,2.197,2.28
	C31.854,15.716,30.87,16.737,29.657,16.737z"/>
</svg>
