<?xml version="1.0" encoding="utf-8"?>
<!-- Generator: Adobe Illustrator 17.0.1, SVG Export Plug-In . SVG Version: 6.00 Build 0)  -->
<!DOCTYPE svg PUBLIC "-//W3C//DTD SVG 1.1//EN" "http://www.w3.org/Graphics/SVG/1.1/DTD/svg11.dtd">
<svg version="1.1" id="Слой_1" xmlns="http://www.w3.org/2000/svg" xmlns:xlink="http://www.w3.org/1999/xlink" x="0px" y="0px"
	 width="22.989px" height="40.007px" viewBox="0 0 22.989 40.007" enable-background="new 0 0 22.989 40.007" xml:space="preserve">
<path fill="#0D0F0F" d="M22.89,22.06c-0.145,0.382-0.431,0.685-0.805,0.853c-0.2,0.09-0.413,0.136-0.634,0.136
	c-0.603,0-1.154-0.354-1.402-0.9c-0.267-0.586-0.536-1.227-0.81-1.887c-1.283-3.068-2.591-5.946-4.492-7.456
	c-0.059-0.047-0.13-0.071-0.202-0.071c-0.068,0-0.135,0.021-0.193,0.064c-0.118,0.087-0.162,0.242-0.106,0.378l4.858,11.96
	c0.291,0.716,0.267,1.38-0.066,1.871s-0.945,0.762-1.721,0.762H15.67c-0.086,0-0.168,0.034-0.228,0.094
	c-0.061,0.06-0.095,0.142-0.095,0.227l0.001,10.387c0,0.842-0.691,1.528-1.539,1.529c-0.848,0-1.537-0.686-1.537-1.529
	l-0.001-10.387c0-0.177-0.145-0.321-0.324-0.321h-0.911c-0.179,0-0.323,0.144-0.323,0.321l-0.002,10.387
	c0,0.843-0.689,1.529-1.537,1.529c-0.848-0.001-1.539-0.687-1.539-1.529l0.001-10.387c0-0.085-0.034-0.167-0.095-0.227
	c-0.06-0.06-0.142-0.094-0.228-0.094H5.672c-0.776,0-1.388-0.27-1.72-0.761c-0.334-0.491-0.358-1.156-0.067-1.872l4.857-11.96
	c0.056-0.136,0.012-0.291-0.106-0.378c-0.057-0.042-0.125-0.064-0.193-0.064c-0.072,0-0.143,0.024-0.202,0.071
	c-1.898,1.508-3.207,4.387-4.491,7.456c-0.268,0.641-0.545,1.305-0.81,1.887c-0.248,0.546-0.799,0.9-1.402,0.9
	c-0.221,0-0.433-0.046-0.632-0.136C0.531,22.745,0.245,22.442,0.1,22.06c-0.145-0.382-0.132-0.797,0.037-1.17
	c0.259-0.572,0.532-1.225,0.773-1.801c1.747-4.18,4.386-10.498,10.584-10.498c6.197,0,8.838,6.317,10.585,10.497l0.047,0.112
	c0.251,0.601,0.489,1.169,0.725,1.69C23.021,21.263,23.035,21.678,22.89,22.06z M11.492,6.985c-1.937,0-3.513-1.566-3.513-3.491
	C7.979,1.567,9.555,0,11.492,0c1.937,0,3.513,1.567,3.513,3.494C15.005,5.419,13.429,6.985,11.492,6.985z"/>
</svg>
