<?xml version="1.0" encoding="utf-8"?>
<!-- Generator: Adobe Illustrator 17.0.1, SVG Export Plug-In . SVG Version: 6.00 Build 0)  -->
<!DOCTYPE svg PUBLIC "-//W3C//DTD SVG 1.1//EN" "http://www.w3.org/Graphics/SVG/1.1/DTD/svg11.dtd">
<svg version="1.1" id="Слой_1" xmlns="http://www.w3.org/2000/svg" xmlns:xlink="http://www.w3.org/1999/xlink" x="0px" y="0px"
	 width="34.998px" height="39.001px" viewBox="0 0 34.998 39.001" enable-background="new 0 0 34.998 39.001" xml:space="preserve">
<path fill="#0D0F0F" d="M33.388,33.576c0.885-0.261,1.61,0.14,1.61,0.89c0,0.751-0.725,1.578-1.61,1.839
	c0,0-9.144,2.696-15.889,2.696S1.61,36.305,1.61,36.305C0.724,36.044,0,35.217,0,34.466c0-0.751,0.724-1.151,1.61-0.89
	c0,0,2.782,0.82,6.409,1.556c0.025-0.978,0.129-4.183,0.413-5.09c0.337-1.076,1.429-2.233,1.429-2.233s-1.345-3.06-0.841-4.301
	c0.115-0.282,0.225-0.64,0.363-1.024c-1.346,0.589-1.958,2.06-3.892,5.407c-2.438,4.218-6.303-1.323-5.295-1.737
	c1.009-0.413,1.261,1.986,4.202-2.067c2.642-3.639,5.621-3.677,6.201-3.647c0.539-0.482,1.287-0.796,2.371-0.736
	c0.084,0.005,0.165,0.009,0.244,0.015c0.551,0.869,1.456,1.348,2.737,1.453l3.065,1.357L17.03,27.53
	c-0.142,0.359-0.179,0.733-0.127,1.089c-0.796-0.126-1.617-0.329-2.42-0.645c0,0-2.353,2.481-3.614,3.308
	c-0.958,0.629-0.993,3.074-0.955,4.21c2.486,0.439,5.187,0.78,7.585,0.78c2.511,0,5.353-0.374,7.933-0.843l-2.965-6.959
	c0,0-0.444,0.105-1.171,0.195l2.571-6.477c0.426-1.074-0.077-2.285-1.145-2.758l-0.928-0.411c0.32-0.491,0.78-1.308,1.276-2.194
	c0.558-0.021,1.143-0.088,1.746-0.209c0.403-0.08,0.749-0.309,0.976-0.646c0.227-0.337,0.308-0.74,0.226-1.136
	c-0.118-0.573-0.562-1.012-1.115-1.157c0.322-0.496,0.59-0.841,0.757-0.92c0.757-0.358,1.492-0.207,1.849-0.496
	c0.357-0.29-0.378-2.13,0.085-2.316c0.462-0.186,1.848,1.902,1.848,1.902s1.849,0.827,2.017,1.324
	c0.168,0.496,1.723,2.067,2.689,4.961c0,0,0.168,0.828-0.42,1.448c-0.588,0.62-1.345,0.62-1.345,0.62l-1.68-1.737h-2.017
	l-0.504,1.82c0,0-0.421,6.12-2.942,7.278l2.099,7.497C30.788,34.343,33.388,33.576,33.388,33.576z M29.82,15.9
	c0.488,0,0.883-0.389,0.883-0.869c0-0.479-0.395-0.868-0.883-0.868c-0.487,0-0.882,0.389-0.882,0.868
	C28.938,15.511,29.333,15.9,29.82,15.9z M21.703,7.564c-2.123,0-3.843-1.694-3.843-3.782C17.86,1.693,19.58,0,21.703,0
	c2.123,0,3.843,1.693,3.843,3.782C25.546,5.87,23.826,7.564,21.703,7.564z M17.308,13.524c-0.87-1.409-1.011-2.721-1.026-2.809
	h0.001c-0.067-0.594,0.367-1.128,0.969-1.193c0.603-0.067,1.146,0.36,1.213,0.954l0.001,0.004c0.002,0.011,0.004,0.031,0.008,0.058
	c0.01,0.055,0.026,0.143,0.052,0.254c0.051,0.222,0.141,0.54,0.286,0.887c0.294,0.699,0.798,1.484,1.626,1.985
	c0.557,0.335,1.272,0.574,2.299,0.577c0.455,0,0.971-0.05,1.557-0.166c0.594-0.119,1.173,0.26,1.293,0.845
	c0.121,0.584-0.264,1.154-0.858,1.273c-0.712,0.142-1.374,0.209-1.992,0.209c-0.005,0-0.009,0-0.014,0
	c-1.382,0-2.54-0.351-3.439-0.9C18.381,14.953,17.746,14.225,17.308,13.524z M18.414,7.761c1.377,0.285,1.957,1.989,1.469,3.426
	c-0.08,0.337-0.169,0.699-0.262,1.079c-0.174-0.263-0.307-0.525-0.403-0.752c-0.139-0.332-0.22-0.628-0.264-0.816
	c-0.023-0.102-0.038-0.181-0.045-0.224l-0.004-0.029l-0.004-0.021c-0.088-0.765-0.743-1.342-1.525-1.342
	c-0.057,0-0.115,0.004-0.172,0.01c-0.408,0.045-0.774,0.243-1.031,0.558c-0.256,0.316-0.372,0.711-0.327,1.113l0.004,0.031
	l0.001,0.009c0.081,0.576,0.329,1.726,1.083,2.947c0.527,0.846,1.2,1.53,1.998,2.041c-0.096,0.811-0.134,1.626-0.065,2.406
	l3.675,1.627c0.856,0.379,1.257,1.346,0.916,2.206l-2.745,6.916c-0.272,0.683-0.935,1.1-1.638,1.1c-0.212,0-0.428-0.038-0.638-0.119
	c-0.904-0.347-1.351-1.35-0.997-2.239l2.137-5.385l-3.515-1.556c-1.269-0.088-2.55-0.565-2.937-2.468
	c-0.367-3.187-0.099-5.078,1.05-7.994C15.024,8.169,17.038,7.474,18.414,7.761z"/>
</svg>
