<?xml version="1.0" encoding="utf-8"?>
<!-- Generator: Adobe Illustrator 17.0.1, SVG Export Plug-In . SVG Version: 6.00 Build 0)  -->
<!DOCTYPE svg PUBLIC "-//W3C//DTD SVG 1.1//EN" "http://www.w3.org/Graphics/SVG/1.1/DTD/svg11.dtd">
<svg version="1.1" id="Слой_1" xmlns="http://www.w3.org/2000/svg" xmlns:xlink="http://www.w3.org/1999/xlink" x="0px" y="0px"
	 width="29.004px" height="40.001px" viewBox="0 0 29.004 40.001" enable-background="new 0 0 29.004 40.001" xml:space="preserve">
<path fill="#0D0F0F" d="M29.004,23.735l-4.88,2.66v13.458l-9.541,0.148h-0.161l-9.688-0.148V26.395L0,23.735
	c0,0,0.518-6.059,0.814-8.497c0.123-1.008,0.259-1.654,0.428-2.169c-0.001-0.027-0.008-0.05-0.008-0.077l0.004-0.647
	c0.219-1.472,1.643-2.575,4.01-3.106l8.349-2.03V6c0-0.125,0.026-0.248,0.077-0.366c0.285-0.839,1.261-1.089,1.303-1.1
	c0.554-0.182,0.944-0.719,0.944-1.328c0-0.775-0.631-1.406-1.407-1.406c-0.719,0-1.316,0.533-1.398,1.243v0.652
	c0,0.499-0.407,0.905-0.906,0.905s-0.906-0.406-0.906-0.905V2.982c0-0.084,0.014-0.168,0.04-0.255C11.579,1.17,12.935,0,14.514,0
	c1.769,0,3.208,1.438,3.208,3.206c0,1.405-0.925,2.65-2.263,3.062v0.954l8.304,2.019c2.36,0.529,3.785,1.632,4.003,3.104
	l0.005,0.055v0.592c0,0.027-0.008,0.05-0.008,0.076c0.168,0.515,0.305,1.162,0.428,2.17C28.487,17.676,29.004,23.735,29.004,23.735z
	 M15.175,9.005c-0.342,0.334-0.962,0.33-1.304-0.011L10.024,9.93c0.528,2,2.319,3.486,4.478,3.522
	c2.16-0.036,3.951-1.522,4.479-3.522L15.175,9.005z"/>
</svg>
