<?xml version="1.0" encoding="utf-8"?>
<!-- Generator: Adobe Illustrator 17.0.1, SVG Export Plug-In . SVG Version: 6.00 Build 0)  -->
<!DOCTYPE svg PUBLIC "-//W3C//DTD SVG 1.1//EN" "http://www.w3.org/Graphics/SVG/1.1/DTD/svg11.dtd">
<svg version="1.1" id="Слой_1" xmlns="http://www.w3.org/2000/svg" xmlns:xlink="http://www.w3.org/1999/xlink" x="0px" y="0px"
	 width="34.001px" height="39.999px" viewBox="0 0 34.001 39.999" enable-background="new 0 0 34.001 39.999" xml:space="preserve">
<path fill="#0D0F0F" d="M32.953,39.97h-1.269l0.607-18.657c0.001-0.175,0.194-1.337-0.677-1.486
	c-0.489-0.086-1.007,0.268-1.128,0.976c-0.074,0.428-0.48,0.716-0.907,0.643c-0.427-0.073-0.715-0.48-0.641-0.909
	c0.134-0.79,0.534-1.458,1.068-1.899l-0.031-0.009c-0.435-0.131-5.058-2.853-5.449-3.079l-0.928,6.409l2.382,7.334
	c0.307,0.936,0.409,1.928,0.299,2.907l-0.827,6.238l1.959,0.233v1.299h-2.147h-2.259l-0.488-7.995
	c-0.017-0.276-0.094-0.545-0.225-0.789l-2.218-4.104l-3.233-2.86c-1.064-0.94-0.695-2.263-0.695-2.263
	c0.143-0.722,1.488-6.578,2.121-9.329c0.254-1.104,1.093-1.979,2.184-2.274c2.909-0.788,5.006,1.982,6.75,3.645l2.821,2.516
	l3.078,1.08c0.571,0.199,0.938,0.757,0.898,1.361L32.953,39.97z M24.058,9.797c-2.356-1.183-2.774-3.789-1.594-6.151
	c1.18-2.361,3.513-3.584,5.869-2.401c2.356,1.184,2.774,3.79,1.594,6.151C28.747,9.757,26.414,10.981,24.058,9.797z M14.27,18.294
	l-2.996-1.879l-2.78-4.757l4.001,4.331l3.277,0.848l0.312,1.797l-1.545-0.171L14.27,18.294z M5.73,9.485
	c-2.613,0-4.139-2.124-4.139-4.743C1.591,2.123,3.117,0,5.73,0c2.613,0,4.139,2.123,4.139,4.742C9.869,7.361,8.343,9.485,5.73,9.485
	z M3.955,10.361c0.773,0.025,1.715,0.17,2.431,0.538c0.825,0.425,0.751,0.513,4.114,6.269l3.215,2.016l-0.055,1.823l-3.473-1.767
	c-0.969-0.524-1.528-1.141-2.238-1.946l0.163,1.71l0.294,3.078l1.839,7.272c0.304,0.929,0.569,9.068,0.569,9.068l1.943,0.231v1.288
	h-2.129h-2.24l-1.577-7.927c-0.017-0.274-1.899-4.852-1.899-4.852l-2.922-2.31c-0.836-0.661-1.269-1.709-1.144-2.769l1.196-10.135
	C2.189,11.009,3.007,10.329,3.955,10.361z M2.426,38.451l1.943,0.231v1.288H2.24H0l0.04-2.325c0,0,0.438-11.267,0.568-11.892
	l3.73,2.365L2.426,38.451z M15.909,25.664l3.762,2.386l-2.585,10.417l1.959,0.234v1.298h-2.147h-2.259l0.04-2.345
	C14.679,37.654,15.779,26.294,15.909,25.664z"/>
</svg>
