<?xml version="1.0" encoding="utf-8"?>
<!-- Generator: Adobe Illustrator 17.0.1, SVG Export Plug-In . SVG Version: 6.00 Build 0)  -->
<!DOCTYPE svg PUBLIC "-//W3C//DTD SVG 1.1//EN" "http://www.w3.org/Graphics/SVG/1.1/DTD/svg11.dtd">
<svg version="1.1" id="Слой_1" xmlns="http://www.w3.org/2000/svg" xmlns:xlink="http://www.w3.org/1999/xlink" x="0px" y="0px"
	 width="36.999px" height="40.003px" viewBox="0 0 36.999 40.003" enable-background="new 0 0 36.999 40.003" xml:space="preserve">
<path fill="#0D0F0F" d="M33.205,36.422c0,0-5.689,5.389-7.475,1.89c-2.054-4.023-1.182-7.887-0.627-9.549l-4.264-4.67
	c-0.144,0.043-0.298,0.067-0.456,0.067c-0.031,0-0.063-0.001-0.094-0.003c-0.858-0.05-1.511-0.769-1.459-1.604
	c0.014-0.215,0.023-0.423,0.03-0.629l-1.959-2.145v17.964c0,1.248-1.038,2.26-2.318,2.26s-2.318-1.012-2.318-2.26V26.162h-0.869
	v11.581c0,1.248-1.037,2.26-2.317,2.26s-2.318-1.012-2.318-2.26V18.267c0.184,0.017,0.372,0.029,0.567,0.029h0.011h0.002
	c1.531-0.009,3.327-0.459,5.824-1.458c0.502-0.202,0.893-0.583,1.101-1.072c0.209-0.489,0.209-1.028,0.002-1.517
	c-0.316-0.744-1.053-1.225-1.88-1.225c-0.267,0-0.527,0.05-0.777,0.151c-2.475,1.005-3.747,1.142-4.167,1.155
	c0.108-0.294,0.301-0.694,0.56-1.031c0.188-0.259,0.393-0.474,0.527-0.584l-0.45-0.228c-0.145,0.14-0.312,0.328-0.468,0.543
	c-0.459,0.596-0.773,1.441-0.745,1.72l0,0c0.083,0.022,0.238,0.048,0.47,0.048c0.749,0.008,2.242-0.293,4.457-1.193
	c0.794-0.32,1.703,0.048,2.031,0.822c0.328,0.774-0.05,1.66-0.843,1.98c-2.43,0.972-4.19,1.413-5.645,1.422
	c-0.003,0-0.006,0-0.009,0c-0.969,0-1.893-0.222-2.603-0.839c-0.717-0.621-0.98-1.52-0.968-2.24
	c0.013-1.024,0.375-1.908,0.826-2.714c0.202-0.349,0.423-0.677,0.662-0.982c0.31-0.396,0.651-0.753,1.025-1.056
	c0.321-0.238,0.653-0.485,1.13-0.625L0,1.266l1.238-1.075l8.237,9.023h0.791c0.939,0.713,2.119,1.139,3.399,1.139
	c1.059,0,2.049-0.291,2.892-0.795c0.548,0.302,1.626,1.014,2.687,2.379c1.42,1.821,2.746,4.801,2.739,9.262
	c0,0.494-0.016,1.006-0.048,1.537c-0.003,0.038-0.008,0.075-0.013,0.112l4.419,4.841c1.757-0.345,5.794-0.741,9.655,1.714
	C39.354,31.538,33.205,36.422,33.205,36.422z M17.226,14.43c-0.108-0.172-0.216-0.331-0.325-0.481v3.399l1.886,2.066
	C18.559,17.112,17.909,15.527,17.226,14.43z M13.665,9.886c-2.8,0-5.07-2.213-5.07-4.943c0-2.73,2.27-4.943,5.07-4.943
	c2.8,0,5.07,2.213,5.07,4.943C18.735,7.673,16.465,9.886,13.665,9.886z"/>
</svg>
