<?xml version="1.0" encoding="utf-8"?>
<!-- Generator: Adobe Illustrator 17.0.1, SVG Export Plug-In . SVG Version: 6.00 Build 0)  -->
<!DOCTYPE svg PUBLIC "-//W3C//DTD SVG 1.1//EN" "http://www.w3.org/Graphics/SVG/1.1/DTD/svg11.dtd">
<svg version="1.1" id="Слой_1" xmlns="http://www.w3.org/2000/svg" xmlns:xlink="http://www.w3.org/1999/xlink" x="0px" y="0px"
	 width="48.331px" height="56.126px" viewBox="0 0 48.331 56.126" enable-background="new 0 0 48.331 56.126" xml:space="preserve">
<path fill="#291D11" d="M24.165,20.112c5.457,0,9.666,4.521,9.666,9.978s-4.365,9.978-9.666,9.978c-3.118,0-5.924-1.559-7.795-3.898
	c0.468-1.247,0.935-3.586,0.935-6.236c0-2.494-0.312-4.677-0.78-5.924C18.241,21.671,21.047,20.112,24.165,20.112L24.165,20.112z"/>
<path fill="#291D11" d="M45.68,0H2.65C1.715,0,0,1.715,0,2.65c0,15.746,0,8.263,0,50.825c0,0.935,1.715,2.65,2.65,2.65h43.03
	c0.935,0,2.65-1.715,2.65-2.65c0-50.825,0-32.117,0-50.825C48.331,1.715,46.616,0,45.68,0z M32.74,4.209
	c1.091,0,1.871,0.935,1.871,2.027s-0.935,2.027-1.871,2.027c-1.091,0-1.871-0.935-1.871-2.027S31.805,4.209,32.74,4.209z
	 M26.66,4.209c1.091,0,1.871,0.935,1.871,2.027s-0.935,2.027-1.871,2.027c-1.091,0-1.871-0.935-1.871-2.027
	S25.569,4.209,26.66,4.209z M7.483,6.236c0-1.091,0.935-2.027,1.871-2.027c1.091,0,1.871,0.935,1.871,2.027S10.29,8.263,9.354,8.263
	C8.263,8.263,7.483,7.328,7.483,6.236z M24.165,44.277c-7.639,0-13.72-6.236-13.72-14.031s6.236-14.031,13.72-14.031
	c7.639,0,13.72,6.236,13.72,14.031C37.885,37.885,31.805,44.277,24.165,44.277z M38.976,8.263c-1.091,0-1.871-0.935-1.871-2.027
	s0.935-2.027,1.871-2.027c1.091,0,1.871,0.935,1.871,2.027S40.068,8.263,38.976,8.263z"/>
</svg>
